<svg xmlns="http://www.w3.org/2000/svg" xmlns:xlink="http://www.w3.org/1999/xlink" width="833" zoomAndPan="magnify" viewBox="0 0 624.75 129.000003" height="172" preserveAspectRatio="xMidYMid meet" version="1.0"><defs><clipPath id="837bc762a9"><path d="M 2.277344 24 L 150.628906 24 L 150.628906 104 L 2.277344 104 Z M 2.277344 24 " clip-rule="nonzero"/></clipPath><clipPath id="795b7d77a2"><path d="M 241 28.75 L 252 28.75 L 252 82 L 241 82 Z M 241 28.75 " clip-rule="nonzero"/></clipPath><clipPath id="d2234ee3fc"><path d="M 353 43 L 407 43 L 407 82.15625 L 353 82.15625 Z M 353 43 " clip-rule="nonzero"/></clipPath><clipPath id="2ac18f85d0"><path d="M 548 28.75 L 602 28.75 L 602 82.15625 L 548 82.15625 Z M 548 28.75 " clip-rule="nonzero"/></clipPath></defs><path fill="#03aaa3" d="M 29.183594 47.660156 L 29.421875 47.84375 C 29.515625 47.910156 29.617188 47.921875 29.726562 47.886719 C 29.835938 47.847656 29.902344 47.773438 29.933594 47.660156 L 29.933594 47.390625 C 30.359375 46.199219 30.828125 45.03125 31.339844 43.875 C 31.855469 42.722656 32.410156 41.589844 33.011719 40.480469 C 33.613281 39.371094 34.257812 38.285156 34.941406 37.222656 C 35.625 36.160156 36.351562 35.128906 37.113281 34.125 C 37.878906 33.117188 38.679688 32.144531 39.519531 31.199219 C 40.359375 30.257812 41.234375 29.347656 42.144531 28.472656 C 43.054688 27.59375 43.996094 26.753906 44.96875 25.953125 C 45.945312 25.148438 46.949219 24.382812 47.980469 23.65625 C 49.015625 22.929688 50.074219 22.246094 51.160156 21.601562 C 52.246094 20.957031 53.355469 20.355469 54.488281 19.796875 C 55.621094 19.238281 56.773438 18.722656 57.945312 18.25 C 59.117188 17.78125 60.304688 17.355469 61.511719 16.976562 C 62.714844 16.597656 63.933594 16.265625 65.164062 15.980469 C 66.394531 15.695312 67.632812 15.460938 68.882812 15.269531 C 70.132812 15.078125 71.386719 14.9375 72.644531 14.847656 C 73.90625 14.753906 75.167969 14.707031 76.429688 14.710938 C 78.539062 14.726562 80.640625 14.875 82.734375 15.15625 C 84.824219 15.4375 86.890625 15.851562 88.929688 16.398438 C 90.96875 16.945312 92.960938 17.617188 94.914062 18.417969 C 96.867188 19.21875 98.761719 20.140625 100.597656 21.183594 C 102.433594 22.226562 104.191406 23.378906 105.878906 24.648438 C 107.566406 25.914062 109.167969 27.285156 110.679688 28.753906 C 112.191406 30.226562 113.605469 31.789062 114.917969 33.441406 C 116.230469 35.09375 117.433594 36.820312 118.523438 38.625 C 119.039062 39.484375 119.730469 40.160156 120.601562 40.65625 C 121.46875 41.148438 122.40625 41.394531 123.40625 41.398438 C 123.808594 41.449219 124.210938 41.449219 124.609375 41.398438 L 125.214844 41.1875 C 126.027344 40.902344 126.734375 40.457031 127.34375 39.851562 C 127.949219 39.242188 128.394531 38.535156 128.679688 37.722656 C 128.980469 36.875 129.085938 36 128.996094 35.105469 C 128.90625 34.207031 128.632812 33.375 128.167969 32.601562 C 126.679688 30.148438 125.027344 27.808594 123.207031 25.589844 C 121.386719 23.367188 119.421875 21.289062 117.304688 19.347656 C 115.1875 17.40625 112.945312 15.625 110.578125 14.003906 C 108.207031 12.382812 105.734375 10.9375 103.160156 9.667969 C 100.585938 8.398438 97.933594 7.316406 95.203125 6.425781 C 92.472656 5.53125 89.695312 4.835938 86.867188 4.339844 C 84.039062 3.84375 81.191406 3.546875 78.320312 3.457031 C 75.449219 3.363281 72.589844 3.476562 69.734375 3.789062 C 66.878906 4.105469 64.0625 4.621094 61.28125 5.335938 C 58.5 6.050781 55.785156 6.960938 53.132812 8.0625 C 50.480469 9.164062 47.921875 10.449219 45.453125 11.914062 C 42.984375 13.382812 40.632812 15.015625 38.398438 16.816406 C 36.160156 18.617188 34.0625 20.566406 32.105469 22.664062 C 30.144531 24.765625 28.347656 26.992188 26.707031 29.347656 C 25.0625 31.699219 23.597656 34.160156 22.304688 36.722656 C 21.015625 39.289062 19.914062 41.929688 18.996094 44.648438 L 18.996094 44.980469 C 18.957031 45.101562 18.984375 45.210938 19.070312 45.304688 C 19.15625 45.398438 19.265625 45.433594 19.390625 45.402344 L 19.75 45.402344 C 21.433594 45.078125 23.109375 45.121094 24.777344 45.523438 C 26.445312 45.929688 27.953125 46.660156 29.300781 47.722656 " fill-opacity="1" fill-rule="nonzero"/><path class="color-style" fill="#03aaa3" d="M 133.230469 82.449219 C 131.535156 82.78125 129.847656 82.742188 128.167969 82.339844 C 126.492188 81.933594 124.972656 81.195312 123.617188 80.128906 L 123.40625 79.949219 C 123.308594 79.882812 123.203125 79.867188 123.089844 79.90625 C 122.976562 79.941406 122.902344 80.015625 122.863281 80.128906 L 122.863281 80.371094 C 122.089844 82.554688 121.164062 84.671875 120.089844 86.726562 C 119.015625 88.78125 117.800781 90.746094 116.449219 92.628906 C 115.097656 94.511719 113.621094 96.289062 112.015625 97.964844 C 110.410156 99.636719 108.699219 101.191406 106.875 102.621094 C 105.050781 104.054688 103.136719 105.351562 101.128906 106.511719 C 99.125 107.671875 97.046875 108.6875 94.894531 109.554688 C 92.746094 110.421875 90.546875 111.136719 88.292969 111.691406 C 86.042969 112.25 83.765625 112.648438 81.460938 112.882812 C 79.152344 113.117188 76.839844 113.191406 74.523438 113.097656 C 72.207031 113.007812 69.90625 112.753906 67.628906 112.339844 C 65.347656 111.921875 63.105469 111.347656 60.90625 110.617188 C 58.707031 109.886719 56.566406 109.003906 54.492188 107.96875 C 52.417969 106.933594 50.425781 105.761719 48.515625 104.445312 C 46.609375 103.128906 44.800781 101.6875 43.09375 100.117188 C 41.390625 98.546875 39.804688 96.863281 38.335938 95.070312 C 36.867188 93.277344 35.535156 91.386719 34.335938 89.40625 C 34.066406 88.960938 33.738281 88.5625 33.351562 88.210938 C 32.96875 87.859375 32.542969 87.570312 32.078125 87.339844 C 31.609375 87.109375 31.121094 86.949219 30.605469 86.859375 C 30.09375 86.773438 29.578125 86.757812 29.0625 86.8125 C 28.78125 86.773438 28.5 86.773438 28.21875 86.8125 C 27.886719 86.882812 27.566406 86.984375 27.253906 87.117188 C 26.871094 87.273438 26.507812 87.464844 26.167969 87.699219 C 25.828125 87.933594 25.515625 88.203125 25.234375 88.503906 C 24.953125 88.804688 24.707031 89.136719 24.492188 89.488281 C 24.28125 89.84375 24.113281 90.21875 23.980469 90.609375 C 23.851562 91.003906 23.765625 91.40625 23.722656 91.816406 C 23.679688 92.226562 23.679688 92.636719 23.726562 93.046875 C 23.769531 93.457031 23.859375 93.859375 23.992188 94.25 C 24.125 94.640625 24.296875 95.015625 24.511719 95.367188 C 25.855469 97.578125 27.335938 99.695312 28.949219 101.71875 C 30.5625 103.742188 32.300781 105.652344 34.160156 107.453125 C 36.019531 109.253906 37.984375 110.929688 40.058594 112.476562 C 42.132812 114.027344 44.296875 115.4375 46.550781 116.710938 C 48.804688 117.980469 51.132812 119.105469 53.53125 120.078125 C 55.929688 121.054688 58.378906 121.871094 60.882812 122.535156 C 63.382812 123.195312 65.917969 123.695312 68.484375 124.035156 C 71.050781 124.371094 73.628906 124.542969 76.21875 124.550781 L 78.296875 124.550781 C 81.878906 124.421875 85.425781 123.988281 88.933594 123.257812 C 91.503906 122.71875 94.03125 122.011719 96.507812 121.144531 C 98.988281 120.273438 101.398438 119.246094 103.746094 118.058594 C 106.089844 116.875 108.347656 115.542969 110.515625 114.0625 C 112.6875 112.582031 114.75 110.96875 116.710938 109.21875 C 118.667969 107.46875 120.503906 105.597656 122.21875 103.609375 C 123.933594 101.617188 125.507812 99.523438 126.949219 97.328125 C 128.390625 95.132812 129.679688 92.851562 130.824219 90.488281 C 131.964844 88.121094 132.949219 85.695312 133.773438 83.199219 L 133.773438 82.867188 C 133.828125 82.742188 133.808594 82.625 133.71875 82.519531 C 133.625 82.414062 133.515625 82.378906 133.378906 82.417969 Z M 133.230469 82.449219 " fill-opacity="1" fill-rule="nonzero"/><g clip-path="url(#837bc762a9)"><path fill="#03aaa3" d="M 132.265625 77.296875 C 131.691406 77.417969 131.109375 77.460938 130.523438 77.425781 C 129.9375 77.394531 129.367188 77.289062 128.808594 77.105469 C 128.25 76.921875 127.726562 76.671875 127.234375 76.351562 C 126.742188 76.03125 126.300781 75.65625 125.90625 75.21875 L 119.398438 67.992188 C 119.058594 67.613281 118.695312 67.261719 118.304688 66.929688 C 117.917969 66.601562 117.511719 66.296875 117.085938 66.019531 C 116.65625 65.746094 116.214844 65.496094 115.753906 65.277344 C 115.296875 65.058594 114.824219 64.871094 114.339844 64.714844 C 113.855469 64.558594 113.367188 64.433594 112.863281 64.34375 C 112.363281 64.25 111.859375 64.191406 111.351562 64.164062 C 110.84375 64.136719 110.335938 64.144531 109.832031 64.183594 C 109.324219 64.222656 108.820312 64.296875 108.324219 64.402344 C 107.824219 64.507812 107.335938 64.644531 106.859375 64.8125 C 106.378906 64.984375 105.910156 65.183594 105.457031 65.414062 C 105.003906 65.644531 104.570312 65.902344 104.148438 66.191406 C 103.730469 66.476562 103.332031 66.792969 102.953125 67.132812 C 102.574219 67.472656 102.21875 67.835938 101.886719 68.21875 C 101.558594 68.605469 101.253906 69.011719 100.976562 69.4375 C 100.699219 69.863281 100.449219 70.304688 100.230469 70.765625 C 100.007812 71.222656 99.820312 71.695312 99.660156 72.175781 L 96.648438 81.421875 C 96.464844 81.984375 96.214844 82.511719 95.894531 83.007812 C 95.570312 83.503906 95.191406 83.945312 94.753906 84.339844 C 94.3125 84.734375 93.828125 85.066406 93.304688 85.332031 C 92.777344 85.597656 92.222656 85.789062 91.644531 85.910156 C 91.074219 86.035156 90.492188 86.078125 89.90625 86.046875 C 89.320312 86.011719 88.75 85.90625 88.195312 85.71875 C 87.636719 85.535156 87.117188 85.277344 86.628906 84.953125 C 86.140625 84.628906 85.703125 84.246094 85.320312 83.800781 L 78.75 76.632812 C 78.410156 76.261719 78.046875 75.910156 77.660156 75.585938 C 77.273438 75.257812 76.867188 74.957031 76.441406 74.683594 C 76.015625 74.410156 75.574219 74.167969 75.117188 73.949219 C 74.660156 73.734375 74.1875 73.546875 73.707031 73.394531 C 73.226562 73.238281 72.738281 73.113281 72.238281 73.023438 C 71.742188 72.933594 71.238281 72.875 70.734375 72.847656 C 70.230469 72.820312 69.726562 72.828125 69.21875 72.867188 C 68.714844 72.90625 68.214844 72.980469 67.722656 73.082031 C 67.226562 73.1875 66.738281 73.324219 66.261719 73.492188 C 65.785156 73.660156 65.320312 73.859375 64.871094 74.085938 C 64.417969 74.316406 63.984375 74.570312 63.566406 74.855469 C 63.148438 75.140625 62.75 75.453125 62.371094 75.789062 C 61.996094 76.125 61.640625 76.484375 61.308594 76.867188 C 60.976562 77.25 60.671875 77.652344 60.394531 78.074219 C 60.117188 78.496094 59.867188 78.933594 59.644531 79.390625 C 59.425781 79.84375 59.234375 80.3125 59.074219 80.789062 L 56.058594 90.035156 C 55.878906 90.59375 55.628906 91.121094 55.3125 91.613281 C 54.992188 92.105469 54.613281 92.546875 54.175781 92.9375 C 53.738281 93.328125 53.257812 93.65625 52.734375 93.921875 C 52.210938 94.183594 51.664062 94.375 51.089844 94.496094 C 50.511719 94.621094 49.929688 94.667969 49.34375 94.640625 C 48.753906 94.613281 48.179688 94.507812 47.617188 94.328125 C 47.058594 94.148438 46.53125 93.898438 46.035156 93.582031 C 45.539062 93.261719 45.09375 92.882812 44.699219 92.445312 L 38.222656 85.21875 C 37.878906 84.839844 37.515625 84.488281 37.128906 84.160156 C 36.738281 83.828125 36.332031 83.527344 35.90625 83.25 C 35.476562 82.972656 35.035156 82.726562 34.574219 82.507812 C 34.113281 82.289062 33.640625 82.101562 33.160156 81.945312 C 32.675781 81.789062 32.179688 81.667969 31.679688 81.574219 C 31.179688 81.484375 30.675781 81.425781 30.167969 81.398438 C 29.660156 81.371094 29.152344 81.378906 28.644531 81.421875 C 28.136719 81.460938 27.636719 81.535156 27.136719 81.640625 C 26.640625 81.746094 26.152344 81.886719 25.671875 82.054688 C 25.191406 82.226562 24.726562 82.425781 24.273438 82.65625 C 23.820312 82.890625 23.382812 83.148438 22.964844 83.4375 C 22.542969 83.726562 22.144531 84.039062 21.765625 84.378906 C 21.390625 84.722656 21.035156 85.085938 20.703125 85.472656 C 20.375 85.859375 20.070312 86.265625 19.792969 86.691406 C 19.515625 87.117188 19.269531 87.5625 19.050781 88.019531 C 18.832031 88.480469 18.640625 88.949219 18.484375 89.433594 L 15.472656 98.320312 C 15.355469 98.707031 15.207031 99.082031 15.027344 99.445312 C 14.847656 99.804688 14.636719 100.148438 14.394531 100.472656 C 14.152344 100.796875 13.886719 101.101562 13.59375 101.378906 C 13.296875 101.65625 12.984375 101.90625 12.644531 102.128906 C 12.308594 102.351562 11.953125 102.542969 11.582031 102.703125 C 11.210938 102.863281 10.828125 102.992188 10.433594 103.085938 C 10.039062 103.179688 9.640625 103.238281 9.238281 103.261719 C 8.832031 103.285156 8.429688 103.273438 8.027344 103.230469 C 7.542969 103.160156 7.074219 103.039062 6.613281 102.871094 C 6.15625 102.699219 5.722656 102.480469 5.3125 102.210938 C 4.902344 101.945312 4.527344 101.636719 4.183594 101.289062 C 3.84375 100.941406 3.542969 100.558594 3.28125 100.140625 C 3.023438 99.726562 2.8125 99.289062 2.652344 98.828125 C 2.488281 98.367188 2.378906 97.894531 2.320312 97.410156 C 2.261719 96.921875 2.257812 96.4375 2.304688 95.949219 C 2.351562 95.464844 2.453125 94.988281 2.605469 94.523438 L 15.472656 55.101562 C 15.65625 54.539062 15.910156 54.011719 16.238281 53.519531 C 16.566406 53.023438 16.949219 52.582031 17.394531 52.195312 C 17.839844 51.804688 18.328125 51.480469 18.863281 51.222656 C 19.394531 50.964844 19.953125 50.78125 20.535156 50.671875 C 21.109375 50.546875 21.691406 50.5 22.28125 50.527344 C 22.867188 50.554688 23.441406 50.660156 24.003906 50.839844 C 24.5625 51.019531 25.09375 51.269531 25.585938 51.585938 C 26.082031 51.90625 26.527344 52.285156 26.921875 52.722656 L 33.550781 59.890625 C 34.234375 60.648438 35.003906 61.304688 35.859375 61.859375 C 36.714844 62.417969 37.628906 62.851562 38.601562 63.167969 C 39.570312 63.484375 40.566406 63.667969 41.585938 63.722656 C 42.605469 63.773438 43.613281 63.695312 44.613281 63.484375 C 45.613281 63.269531 46.566406 62.933594 47.476562 62.46875 C 48.386719 62.007812 49.21875 61.433594 49.976562 60.75 C 50.738281 60.066406 51.394531 59.296875 51.949219 58.441406 C 52.507812 57.585938 52.941406 56.671875 53.257812 55.703125 L 56.269531 46.457031 C 56.449219 45.894531 56.699219 45.367188 57.019531 44.871094 C 57.339844 44.378906 57.71875 43.933594 58.15625 43.539062 C 58.59375 43.144531 59.074219 42.8125 59.597656 42.542969 C 60.125 42.277344 60.675781 42.082031 61.25 41.960938 C 61.828125 41.835938 62.410156 41.792969 63 41.824219 C 63.585938 41.855469 64.164062 41.960938 64.722656 42.144531 C 65.28125 42.328125 65.808594 42.582031 66.300781 42.90625 C 66.796875 43.226562 67.238281 43.609375 67.628906 44.046875 L 74.140625 51.277344 C 74.480469 51.652344 74.84375 52.003906 75.230469 52.332031 C 75.617188 52.660156 76.023438 52.960938 76.449219 53.238281 C 76.875 53.511719 77.316406 53.757812 77.773438 53.976562 C 78.230469 54.191406 78.703125 54.378906 79.183594 54.535156 C 79.667969 54.691406 80.15625 54.816406 80.65625 54.90625 C 81.15625 55 81.65625 55.058594 82.164062 55.082031 C 82.667969 55.109375 83.175781 55.101562 83.679688 55.0625 C 84.1875 55.023438 84.6875 54.949219 85.183594 54.84375 C 85.679688 54.738281 86.167969 54.601562 86.644531 54.433594 C 87.121094 54.261719 87.585938 54.0625 88.039062 53.832031 C 88.492188 53.601562 88.925781 53.34375 89.34375 53.058594 C 89.761719 52.769531 90.160156 52.457031 90.535156 52.121094 C 90.914062 51.78125 91.265625 51.417969 91.597656 51.035156 C 91.925781 50.648438 92.230469 50.246094 92.507812 49.820312 C 92.785156 49.394531 93.03125 48.953125 93.25 48.496094 C 93.46875 48.039062 93.65625 47.570312 93.816406 47.089844 L 96.828125 37.84375 C 97.003906 37.28125 97.253906 36.753906 97.570312 36.257812 C 97.886719 35.761719 98.265625 35.316406 98.703125 34.921875 C 99.140625 34.527344 99.621094 34.195312 100.148438 33.929688 C 100.671875 33.664062 101.222656 33.472656 101.800781 33.355469 C 102.378906 33.230469 102.960938 33.183594 103.550781 33.214844 C 104.140625 33.246094 104.714844 33.351562 105.273438 33.535156 C 105.835938 33.71875 106.363281 33.96875 106.859375 34.292969 C 107.351562 34.613281 107.796875 34.996094 108.1875 35.433594 L 114.699219 42.660156 C 115.382812 43.421875 116.152344 44.078125 117.007812 44.632812 C 117.867188 45.1875 118.78125 45.621094 119.753906 45.9375 C 120.726562 46.25 121.722656 46.433594 122.742188 46.484375 C 123.761719 46.539062 124.769531 46.457031 125.769531 46.242188 C 126.769531 46.03125 127.722656 45.691406 128.632812 45.226562 C 129.542969 44.761719 130.375 44.1875 131.132812 43.5 C 131.890625 42.816406 132.546875 42.046875 133.101562 41.1875 C 133.65625 40.332031 134.089844 39.417969 134.40625 38.445312 L 137.417969 29.5625 C 137.535156 29.171875 137.683594 28.796875 137.867188 28.433594 C 138.046875 28.074219 138.261719 27.730469 138.503906 27.402344 C 138.746094 27.078125 139.015625 26.777344 139.308594 26.5 C 139.605469 26.222656 139.921875 25.96875 140.261719 25.746094 C 140.601562 25.523438 140.957031 25.332031 141.328125 25.171875 C 141.699219 25.011719 142.085938 24.886719 142.480469 24.792969 C 142.875 24.699219 143.273438 24.640625 143.679688 24.617188 C 144.082031 24.59375 144.488281 24.605469 144.890625 24.652344 C 145.375 24.722656 145.84375 24.84375 146.300781 25.015625 C 146.753906 25.1875 147.1875 25.410156 147.597656 25.675781 C 148.003906 25.945312 148.378906 26.253906 148.71875 26.601562 C 149.058594 26.949219 149.359375 27.332031 149.617188 27.746094 C 149.871094 28.164062 150.082031 28.601562 150.242188 29.058594 C 150.40625 29.519531 150.515625 29.992188 150.570312 30.476562 C 150.628906 30.960938 150.632812 31.445312 150.585938 31.933594 C 150.535156 32.417969 150.4375 32.890625 150.285156 33.355469 L 137.476562 72.808594 C 137.292969 73.371094 137.039062 73.894531 136.71875 74.390625 C 136.394531 74.882812 136.015625 75.328125 135.574219 75.71875 C 135.136719 76.113281 134.65625 76.445312 134.128906 76.710938 C 133.605469 76.980469 133.050781 77.175781 132.476562 77.296875 " fill-opacity="1" fill-rule="nonzero"/></g><g clip-path="url(#795b7d77a2)"><path fill="#03aaa3" d="M 249.691406 43.105469 C 250.699219 43.105469 251.214844 43.652344 251.214844 44.742188 L 251.214844 80.347656 C 251.246094 80.558594 251.226562 80.765625 251.160156 80.96875 C 251.09375 81.175781 250.984375 81.351562 250.835938 81.503906 C 250.6875 81.65625 250.511719 81.769531 250.308594 81.839844 C 250.109375 81.910156 249.902344 81.933594 249.691406 81.90625 L 242.839844 81.90625 C 242.628906 81.9375 242.417969 81.917969 242.214844 81.847656 C 242.007812 81.78125 241.828125 81.667969 241.675781 81.515625 C 241.523438 81.363281 241.414062 81.183594 241.347656 80.976562 C 241.277344 80.773438 241.257812 80.5625 241.289062 80.347656 L 241.289062 44.742188 C 241.289062 43.652344 241.808594 43.105469 242.839844 43.105469 Z M 249.691406 28.769531 C 249.894531 28.75 250.09375 28.773438 250.285156 28.84375 C 250.476562 28.914062 250.644531 29.019531 250.789062 29.167969 C 250.933594 29.316406 251.035156 29.484375 251.101562 29.679688 C 251.167969 29.875 251.1875 30.074219 251.164062 30.277344 L 251.164062 37.03125 C 251.164062 38.121094 250.648438 38.664062 249.640625 38.664062 L 242.789062 38.664062 C 242.566406 38.699219 242.347656 38.675781 242.132812 38.605469 C 241.921875 38.53125 241.734375 38.414062 241.578125 38.253906 C 241.417969 38.09375 241.304688 37.902344 241.238281 37.6875 C 241.167969 37.472656 241.152344 37.253906 241.1875 37.03125 L 241.1875 30.277344 C 241.1875 29.265625 241.703125 28.746094 242.789062 28.746094 Z M 249.691406 28.769531 " fill-opacity="1" fill-rule="nonzero"/></g><path fill="#03aaa3" d="M 303.148438 43.105469 C 303.320312 43.085938 303.488281 43.101562 303.65625 43.160156 C 303.820312 43.214844 303.960938 43.308594 304.085938 43.433594 C 304.207031 43.558594 304.292969 43.703125 304.347656 43.871094 C 304.402344 44.035156 304.414062 44.207031 304.390625 44.378906 L 304.390625 50.328125 C 304.414062 50.5 304.402344 50.667969 304.347656 50.835938 C 304.292969 51 304.207031 51.148438 304.085938 51.273438 C 303.960938 51.398438 303.820312 51.488281 303.65625 51.546875 C 303.488281 51.601562 303.320312 51.621094 303.148438 51.597656 L 276.03125 51.597656 C 274.757812 51.570312 273.5 51.699219 272.257812 51.988281 C 271.367188 52.183594 270.597656 52.609375 269.957031 53.261719 C 269.332031 53.941406 268.9375 54.738281 268.769531 55.648438 C 268.511719 56.875 268.390625 58.113281 268.40625 59.363281 L 268.40625 65.648438 C 268.386719 66.917969 268.507812 68.171875 268.769531 69.414062 C 268.949219 70.3125 269.34375 71.097656 269.957031 71.777344 C 270.605469 72.417969 271.371094 72.84375 272.257812 73.050781 C 273.5 73.339844 274.757812 73.46875 276.03125 73.4375 L 303.148438 73.4375 C 303.320312 73.417969 303.488281 73.433594 303.65625 73.492188 C 303.820312 73.550781 303.960938 73.640625 304.085938 73.765625 C 304.207031 73.890625 304.292969 74.035156 304.347656 74.203125 C 304.402344 74.367188 304.414062 74.539062 304.390625 74.710938 L 304.390625 80.632812 C 304.414062 80.804688 304.402344 80.976562 304.347656 81.140625 C 304.292969 81.308594 304.207031 81.453125 304.085938 81.578125 C 303.960938 81.703125 303.820312 81.796875 303.65625 81.851562 C 303.488281 81.910156 303.320312 81.929688 303.148438 81.90625 L 275.050781 81.90625 C 272.375 81.957031 269.730469 81.699219 267.113281 81.125 C 265.167969 80.707031 263.445312 79.839844 261.945312 78.53125 C 260.609375 77.300781 259.6875 75.808594 259.179688 74.0625 C 258.574219 71.933594 258.296875 69.757812 258.351562 67.542969 L 258.351562 57.441406 C 258.300781 55.226562 258.574219 53.054688 259.179688 50.921875 C 259.6875 49.175781 260.609375 47.6875 261.945312 46.457031 C 263.453125 45.160156 265.175781 44.292969 267.113281 43.859375 C 269.726562 43.277344 272.375 43.011719 275.050781 43.054688 Z M 303.148438 43.105469 " fill-opacity="1" fill-rule="nonzero"/><path fill="#03aaa3" d="M 347.042969 43.105469 C 347.214844 43.085938 347.382812 43.101562 347.546875 43.160156 C 347.710938 43.214844 347.855469 43.308594 347.976562 43.433594 C 348.097656 43.558594 348.1875 43.703125 348.242188 43.871094 C 348.292969 44.035156 348.308594 44.207031 348.28125 44.378906 L 348.28125 50.328125 C 348.308594 50.5 348.292969 50.667969 348.242188 50.835938 C 348.1875 51 348.097656 51.148438 347.976562 51.273438 C 347.855469 51.398438 347.710938 51.488281 347.546875 51.546875 C 347.382812 51.601562 347.214844 51.621094 347.042969 51.597656 L 328.457031 51.597656 C 327.199219 51.570312 325.957031 51.699219 324.734375 51.988281 C 323.835938 52.191406 323.0625 52.613281 322.40625 53.261719 C 321.753906 53.933594 321.339844 54.730469 321.167969 55.648438 C 320.960938 56.878906 320.890625 58.117188 320.960938 59.363281 L 320.960938 80.347656 C 320.988281 80.5625 320.972656 80.773438 320.902344 80.976562 C 320.835938 81.183594 320.726562 81.363281 320.570312 81.515625 C 320.417969 81.667969 320.242188 81.78125 320.035156 81.847656 C 319.832031 81.917969 319.621094 81.9375 319.410156 81.90625 L 312.429688 81.90625 C 312.210938 81.941406 312 81.921875 311.789062 81.855469 C 311.582031 81.789062 311.398438 81.679688 311.242188 81.527344 C 311.082031 81.375 310.96875 81.195312 310.894531 80.988281 C 310.820312 80.777344 310.800781 80.566406 310.828125 80.347656 L 310.828125 57.441406 C 310.78125 55.226562 311.066406 53.054688 311.679688 50.921875 C 312.179688 49.179688 313.089844 47.6875 314.417969 46.457031 C 315.933594 45.167969 317.65625 44.304688 319.589844 43.859375 C 322.203125 43.277344 324.847656 43.007812 327.523438 43.054688 Z M 347.042969 43.105469 " fill-opacity="1" fill-rule="nonzero"/><g clip-path="url(#d2234ee3fc)"><path fill="#03aaa3" d="M 363.25 65.855469 C 363.21875 67.125 363.332031 68.378906 363.585938 69.621094 C 363.671875 70.066406 363.820312 70.492188 364.03125 70.890625 C 364.242188 71.292969 364.507812 71.65625 364.824219 71.980469 C 365.140625 72.300781 365.5 72.574219 365.894531 72.789062 C 366.292969 73.007812 366.710938 73.164062 367.152344 73.257812 C 368.371094 73.542969 369.601562 73.671875 370.851562 73.648438 L 388.6875 73.648438 C 389.960938 73.675781 391.21875 73.546875 392.460938 73.257812 C 392.902344 73.164062 393.320312 73.007812 393.71875 72.789062 C 394.113281 72.574219 394.472656 72.300781 394.789062 71.980469 C 395.105469 71.65625 395.371094 71.292969 395.582031 70.890625 C 395.792969 70.492188 395.941406 70.066406 396.027344 69.621094 C 396.28125 68.378906 396.394531 67.125 396.363281 65.855469 L 396.363281 59.15625 C 396.355469 57.910156 396.210938 56.679688 395.925781 55.46875 C 395.738281 54.554688 395.324219 53.757812 394.683594 53.078125 C 394.039062 52.410156 393.265625 51.988281 392.355469 51.804688 C 391.113281 51.542969 389.855469 51.421875 388.582031 51.441406 L 370.746094 51.441406 C 369.5 51.421875 368.269531 51.542969 367.050781 51.804688 C 366.144531 51.988281 365.367188 52.410156 364.722656 53.078125 C 364.082031 53.757812 363.667969 54.554688 363.484375 55.46875 C 363.234375 56.683594 363.121094 57.914062 363.148438 59.15625 Z M 389.667969 43.105469 C 392.285156 43.078125 394.871094 43.34375 397.421875 43.910156 C 399.359375 44.351562 401.082031 45.21875 402.59375 46.507812 C 403.972656 47.753906 404.925781 49.269531 405.460938 51.054688 C 406.054688 53.1875 406.328125 55.359375 406.289062 57.570312 L 406.289062 67.777344 C 406.332031 69.992188 406.054688 72.164062 405.460938 74.296875 C 404.945312 76.039062 404.023438 77.527344 402.695312 78.761719 C 401.191406 80.066406 399.46875 80.929688 397.527344 81.359375 C 394.972656 81.917969 392.386719 82.175781 389.773438 82.140625 L 369.996094 82.140625 C 367.320312 82.191406 364.675781 81.933594 362.0625 81.359375 C 360.121094 80.929688 358.398438 80.0625 356.890625 78.761719 C 355.5625 77.53125 354.648438 76.042969 354.152344 74.296875 C 353.535156 72.167969 353.253906 69.996094 353.296875 67.777344 L 353.296875 57.441406 C 353.253906 55.226562 353.539062 53.054688 354.152344 50.921875 C 354.648438 49.179688 355.5625 47.6875 356.890625 46.457031 C 358.402344 45.167969 360.128906 44.304688 362.0625 43.859375 C 364.675781 43.277344 367.320312 43.007812 369.996094 43.054688 Z M 389.667969 43.105469 " fill-opacity="1" fill-rule="nonzero"/></g><path fill="#03aaa3" d="M 419.1875 43.105469 C 419.367188 43.089844 419.546875 43.101562 419.71875 43.148438 C 419.894531 43.195312 420.054688 43.273438 420.203125 43.378906 C 420.351562 43.480469 420.472656 43.609375 420.574219 43.761719 C 420.675781 43.910156 420.75 44.074219 420.792969 44.25 L 429.8125 73.285156 C 429.859375 73.4375 429.949219 73.558594 430.078125 73.648438 C 430.207031 73.742188 430.351562 73.785156 430.511719 73.777344 L 430.796875 73.777344 C 431.210938 73.777344 431.441406 73.621094 431.492188 73.285156 L 440.929688 46.507812 C 441.238281 45.488281 441.792969 44.621094 442.582031 43.910156 C 443.4375 43.335938 444.375 43.085938 445.402344 43.160156 L 453.726562 43.160156 C 454.75 43.089844 455.6875 43.339844 456.542969 43.910156 C 457.335938 44.621094 457.886719 45.488281 458.195312 46.507812 L 467.554688 73.285156 C 467.554688 73.621094 467.839844 73.777344 468.253906 73.777344 L 468.535156 73.777344 C 468.695312 73.78125 468.835938 73.734375 468.964844 73.644531 C 469.09375 73.554688 469.183594 73.433594 469.234375 73.285156 L 478.308594 44.25 C 478.4375 43.496094 478.980469 43.105469 479.910156 43.105469 L 487.820312 43.105469 C 488.300781 43.035156 488.6875 43.191406 488.984375 43.574219 C 489.136719 43.980469 489.136719 44.386719 488.984375 44.792969 L 478.359375 77.515625 C 478.0625 78.902344 477.398438 80.078125 476.367188 81.046875 C 475.332031 81.703125 474.203125 81.988281 472.984375 81.90625 L 464.167969 81.90625 C 463.101562 81.980469 462.171875 81.660156 461.375 80.945312 C 460.5 79.941406 459.871094 78.796875 459.488281 77.515625 L 450.210938 51.730469 C 450.167969 51.59375 450.089844 51.488281 449.972656 51.410156 C 449.855469 51.332031 449.726562 51.300781 449.589844 51.3125 L 449.175781 51.3125 C 448.789062 51.3125 448.582031 51.3125 448.527344 51.730469 L 439.378906 77.515625 C 439.007812 78.804688 438.378906 79.945312 437.492188 80.945312 C 436.695312 81.660156 435.765625 81.980469 434.699219 81.90625 L 425.882812 81.90625 C 424.664062 81.984375 423.535156 81.699219 422.496094 81.046875 C 421.46875 80.078125 420.804688 78.902344 420.507812 77.515625 L 410.039062 44.792969 C 409.875 44.386719 409.875 43.980469 410.039062 43.574219 C 410.167969 43.261719 410.554688 43.105469 411.226562 43.105469 Z M 419.1875 43.105469 " fill-opacity="1" fill-rule="nonzero"/><path fill="#03aaa3" d="M 225.316406 81.90625 C 224.945312 81.941406 224.613281 81.855469 224.308594 81.644531 C 224.003906 81.433594 223.804688 81.148438 223.710938 80.789062 L 214.691406 51.730469 C 214.644531 51.578125 214.554688 51.453125 214.425781 51.363281 C 214.296875 51.269531 214.152344 51.226562 213.992188 51.234375 L 213.707031 51.234375 C 213.292969 51.234375 213.0625 51.390625 213.011719 51.730469 L 203.574219 78.53125 C 203.261719 79.539062 202.71875 80.40625 201.945312 81.125 C 201.082031 81.691406 200.132812 81.933594 199.101562 81.855469 L 190.804688 81.855469 C 189.777344 81.933594 188.828125 81.691406 187.960938 81.125 C 187.1875 80.40625 186.644531 79.539062 186.332031 78.53125 L 176.949219 51.730469 C 176.949219 51.390625 176.664062 51.234375 176.25 51.234375 L 176.199219 51.234375 C 176.042969 51.226562 175.898438 51.269531 175.765625 51.363281 C 175.636719 51.453125 175.550781 51.578125 175.503906 51.730469 L 166.402344 80.789062 C 166.402344 81.542969 165.730469 81.90625 164.800781 81.90625 L 156.890625 81.90625 C 156.296875 81.90625 155.90625 81.75 155.753906 81.464844 C 155.597656 81.046875 155.597656 80.632812 155.753906 80.21875 L 166.375 47.496094 C 166.691406 46.121094 167.355469 44.945312 168.367188 43.964844 C 169.414062 43.308594 170.550781 43.023438 171.78125 43.105469 L 180.570312 43.105469 C 181.632812 43.03125 182.566406 43.351562 183.359375 44.066406 C 184.238281 45.070312 184.867188 46.214844 185.246094 47.496094 L 194.292969 73.285156 C 194.335938 73.421875 194.421875 73.53125 194.542969 73.609375 C 194.664062 73.6875 194.796875 73.71875 194.941406 73.699219 L 195.355469 73.699219 C 195.714844 73.699219 195.921875 73.699219 195.976562 73.285156 L 205.125 47.496094 C 205.515625 46.21875 206.144531 45.078125 207.011719 44.066406 C 207.808594 43.351562 208.738281 43.03125 209.804688 43.105469 L 218.621094 43.105469 C 219.839844 43.023438 220.96875 43.308594 222.007812 43.964844 C 223.027344 44.9375 223.691406 46.113281 223.996094 47.496094 L 234.492188 80.21875 C 234.625 80.632812 234.625 81.046875 234.492188 81.464844 C 234.335938 81.75 233.949219 81.90625 233.300781 81.90625 Z M 225.316406 81.90625 " fill-opacity="1" fill-rule="nonzero"/><path fill="#03aaa3" d="M 501.910156 59.15625 L 530.214844 59.15625 C 530.378906 59.183594 530.539062 59.171875 530.699219 59.121094 C 530.859375 59.070312 530.996094 58.984375 531.113281 58.867188 C 531.234375 58.746094 531.316406 58.609375 531.367188 58.449219 C 531.417969 58.289062 531.429688 58.125 531.402344 57.960938 L 531.402344 54.976562 C 531.515625 53.824219 531.214844 52.792969 530.5 51.882812 C 529.503906 51.117188 528.382812 50.804688 527.136719 50.949219 L 509.664062 50.949219 C 508.589844 50.832031 507.527344 50.898438 506.476562 51.148438 C 505.425781 51.394531 504.445312 51.816406 503.539062 52.402344 C 502.945312 53.0625 502.511719 53.808594 502.238281 54.652344 C 501.964844 55.492188 501.871094 56.351562 501.960938 57.234375 Z M 529.101562 43.105469 C 531.089844 43.066406 533.054688 43.265625 534.996094 43.703125 C 536.414062 44.027344 537.652344 44.6875 538.71875 45.675781 C 539.683594 46.707031 540.320312 47.910156 540.632812 49.289062 C 541.035156 51.066406 541.226562 52.867188 541.199219 54.6875 L 541.199219 61.441406 C 541.261719 62.011719 541.207031 62.570312 541.035156 63.113281 C 540.863281 63.660156 540.59375 64.152344 540.21875 64.582031 C 539.324219 65.265625 538.316406 65.5625 537.195312 65.464844 L 501.910156 65.464844 L 501.910156 67.15625 C 501.839844 68.007812 501.9375 68.839844 502.207031 69.652344 C 502.476562 70.464844 502.894531 71.1875 503.460938 71.828125 C 504.359375 72.441406 505.335938 72.875 506.386719 73.136719 C 507.441406 73.394531 508.507812 73.460938 509.585938 73.335938 L 538.71875 73.335938 C 538.894531 73.308594 539.066406 73.324219 539.234375 73.378906 C 539.402344 73.433594 539.546875 73.523438 539.671875 73.648438 C 539.796875 73.773438 539.886719 73.921875 539.941406 74.089844 C 540 74.261719 540.011719 74.433594 539.984375 74.609375 L 539.984375 80.527344 C 540.011719 80.703125 540 80.878906 539.941406 81.046875 C 539.886719 81.214844 539.796875 81.363281 539.671875 81.488281 C 539.546875 81.613281 539.402344 81.703125 539.234375 81.757812 C 539.066406 81.8125 538.894531 81.828125 538.71875 81.800781 L 508.605469 81.800781 C 505.929688 81.855469 503.28125 81.59375 500.667969 81.023438 C 498.722656 80.601562 497 79.738281 495.5 78.425781 C 494.152344 77.203125 493.230469 75.714844 492.730469 73.957031 C 492.117188 71.828125 491.832031 69.65625 491.878906 67.441406 L 491.878906 57.441406 C 491.835938 55.226562 492.121094 53.054688 492.730469 50.921875 C 493.230469 49.167969 494.152344 47.679688 495.5 46.457031 C 497.007812 45.160156 498.730469 44.292969 500.667969 43.859375 C 503.28125 43.277344 505.925781 43.007812 508.605469 43.054688 Z M 529.101562 43.105469 " fill-opacity="1" fill-rule="nonzero"/><g clip-path="url(#2ac18f85d0)"><path fill="#03aaa3" d="M 558.417969 51.597656 L 558.417969 65.648438 C 558.398438 66.917969 558.519531 68.171875 558.777344 69.414062 C 558.957031 70.320312 559.363281 71.109375 559.992188 71.777344 C 560.660156 72.402344 561.4375 72.824219 562.320312 73.050781 C 563.546875 73.328125 564.785156 73.449219 566.042969 73.414062 L 583.644531 73.414062 C 584.917969 73.449219 586.175781 73.328125 587.421875 73.050781 C 588.320312 72.855469 589.113281 72.449219 589.796875 71.828125 C 590.417969 71.152344 590.824219 70.367188 591.011719 69.464844 C 591.265625 68.222656 591.375 66.96875 591.347656 65.699219 L 591.347656 59.363281 C 591.375 58.113281 591.261719 56.875 591.011719 55.648438 C 590.835938 54.738281 590.429688 53.941406 589.796875 53.261719 C 589.128906 52.625 588.34375 52.203125 587.445312 51.988281 C 586.203125 51.699219 584.945312 51.570312 583.671875 51.597656 Z M 556.890625 28.902344 C 557.101562 28.875 557.308594 28.898438 557.511719 28.96875 C 557.710938 29.039062 557.886719 29.148438 558.035156 29.300781 C 558.1875 29.453125 558.292969 29.632812 558.359375 29.835938 C 558.429688 30.039062 558.445312 30.246094 558.417969 30.460938 L 558.417969 43.105469 L 584.628906 43.105469 C 587.296875 43.066406 589.933594 43.335938 592.539062 43.910156 C 594.476562 44.347656 596.199219 45.214844 597.707031 46.507812 C 599.039062 47.769531 599.941406 49.28125 600.421875 51.054688 C 601.027344 53.183594 601.300781 55.355469 601.25 57.570312 L 601.25 67.753906 C 601.304688 69.976562 601.027344 72.15625 600.421875 74.296875 C 599.863281 76.007812 598.90625 77.453125 597.554688 78.632812 C 596.050781 79.941406 594.328125 80.804688 592.382812 81.230469 C 589.777344 81.796875 587.140625 82.058594 584.472656 82.007812 L 564.90625 82.007812 C 562.230469 82.0625 559.585938 81.800781 556.96875 81.230469 C 555.023438 80.808594 553.300781 79.945312 551.800781 78.632812 C 550.464844 77.402344 549.542969 75.914062 549.035156 74.167969 C 548.417969 72.027344 548.132812 69.847656 548.179688 67.621094 L 548.179688 30.460938 C 548.179688 29.421875 548.722656 28.902344 549.808594 28.902344 Z M 556.890625 28.902344 " fill-opacity="1" fill-rule="nonzero"/></g></svg>