<svg xmlns="http://www.w3.org/2000/svg" xmlns:xlink="http://www.w3.org/1999/xlink" width="833" zoomAndPan="magnify" viewBox="0 0 624.75 129.000003" height="172" preserveAspectRatio="xMidYMid meet" version="1.0"><defs><clipPath id="c36d3d20c8"><path d="M 23 82 L 134 82 L 134 127.980469 L 23 127.980469 Z M 23 82 " clip-rule="nonzero"/></clipPath><clipPath id="68b7fb71d2"><path d="M 2.277344 27 L 150.628906 27 L 150.628906 107 L 2.277344 107 Z M 2.277344 27 " clip-rule="nonzero"/></clipPath><clipPath id="a63d1117f5"><path d="M 241 31.546875 L 252 31.546875 L 252 84.953125 L 241 84.953125 Z M 241 31.546875 " clip-rule="nonzero"/></clipPath><clipPath id="deccc8b18d"><path d="M 258 45 L 305 45 L 305 84.953125 L 258 84.953125 Z M 258 45 " clip-rule="nonzero"/></clipPath><clipPath id="004c9ced11"><path d="M 310 45 L 349 45 L 349 84.953125 L 310 84.953125 Z M 310 45 " clip-rule="nonzero"/></clipPath><clipPath id="6f408160b9"><path d="M 353 45 L 407 45 L 407 84.953125 L 353 84.953125 Z M 353 45 " clip-rule="nonzero"/></clipPath><clipPath id="a776433ce0"><path d="M 409 45 L 490 45 L 490 84.953125 L 409 84.953125 Z M 409 45 " clip-rule="nonzero"/></clipPath><clipPath id="bab0f10aba"><path d="M 155 45 L 235 45 L 235 84.953125 L 155 84.953125 Z M 155 45 " clip-rule="nonzero"/></clipPath><clipPath id="7e4797a1b9"><path d="M 491 45 L 542 45 L 542 84.953125 L 491 84.953125 Z M 491 45 " clip-rule="nonzero"/></clipPath><clipPath id="5db44870a4"><path d="M 548 31.546875 L 602 31.546875 L 602 84.953125 L 548 84.953125 Z M 548 31.546875 " clip-rule="nonzero"/></clipPath></defs><path fill="#ffffff" d="M 29.183594 50.457031 L 29.421875 50.636719 C 29.515625 50.703125 29.617188 50.71875 29.726562 50.679688 C 29.835938 50.640625 29.902344 50.566406 29.933594 50.457031 L 29.933594 50.183594 C 30.359375 48.996094 30.828125 47.824219 31.339844 46.671875 C 31.855469 45.519531 32.410156 44.386719 33.011719 43.273438 C 33.613281 42.164062 34.257812 41.078125 34.941406 40.019531 C 35.625 38.957031 36.351562 37.925781 37.113281 36.917969 C 37.878906 35.914062 38.679688 34.9375 39.519531 33.996094 C 40.359375 33.050781 41.234375 32.144531 42.144531 31.265625 C 43.054688 30.390625 43.996094 29.550781 44.96875 28.746094 C 45.945312 27.945312 46.949219 27.179688 47.980469 26.453125 C 49.015625 25.726562 50.074219 25.042969 51.160156 24.398438 C 52.246094 23.75 53.355469 23.148438 54.488281 22.589844 C 55.621094 22.03125 56.773438 21.515625 57.945312 21.046875 C 59.117188 20.574219 60.304688 20.152344 61.511719 19.773438 C 62.714844 19.394531 63.933594 19.0625 65.164062 18.777344 C 66.394531 18.492188 67.632812 18.253906 68.882812 18.066406 C 70.132812 17.875 71.386719 17.734375 72.644531 17.640625 C 73.90625 17.546875 75.167969 17.503906 76.429688 17.507812 C 78.539062 17.523438 80.640625 17.667969 82.734375 17.953125 C 84.824219 18.234375 86.890625 18.648438 88.929688 19.195312 C 90.96875 19.738281 92.960938 20.414062 94.914062 21.214844 C 96.867188 22.015625 98.761719 22.933594 100.597656 23.976562 C 102.433594 25.019531 104.191406 26.175781 105.878906 27.441406 C 107.566406 28.710938 109.167969 30.078125 110.679688 31.550781 C 112.191406 33.023438 113.605469 34.582031 114.917969 36.234375 C 116.230469 37.886719 117.433594 39.617188 118.523438 41.421875 C 119.039062 42.28125 119.730469 42.957031 120.601562 43.449219 C 121.46875 43.945312 122.40625 44.191406 123.40625 44.191406 C 123.808594 44.242188 124.210938 44.242188 124.609375 44.191406 L 125.214844 43.980469 C 126.027344 43.699219 126.734375 43.253906 127.34375 42.644531 C 127.949219 42.039062 128.394531 41.328125 128.679688 40.519531 C 128.980469 39.667969 129.085938 38.796875 128.996094 37.898438 C 128.90625 37.003906 128.632812 36.167969 128.167969 35.398438 C 126.679688 32.941406 125.027344 30.605469 123.207031 28.382812 C 121.386719 26.164062 119.421875 24.082031 117.304688 22.144531 C 115.1875 20.203125 112.945312 18.421875 110.578125 16.800781 C 108.207031 15.179688 105.734375 13.734375 103.160156 12.464844 C 100.585938 11.195312 97.933594 10.113281 95.203125 9.21875 C 92.472656 8.328125 89.695312 7.632812 86.867188 7.136719 C 84.039062 6.636719 81.191406 6.34375 78.320312 6.25 C 75.449219 6.160156 72.589844 6.269531 69.734375 6.585938 C 66.878906 6.898438 64.0625 7.414062 61.28125 8.132812 C 58.5 8.847656 55.785156 9.753906 53.132812 10.859375 C 50.480469 11.960938 47.921875 13.242188 45.453125 14.710938 C 42.984375 16.175781 40.632812 17.808594 38.398438 19.609375 C 36.160156 21.410156 34.0625 23.359375 32.105469 25.460938 C 30.144531 27.558594 28.347656 29.785156 26.707031 32.140625 C 25.0625 34.496094 23.597656 36.957031 22.304688 39.519531 C 21.015625 42.082031 19.914062 44.722656 18.996094 47.445312 L 18.996094 47.777344 C 18.957031 47.898438 18.984375 48.007812 19.070312 48.101562 C 19.15625 48.195312 19.265625 48.226562 19.390625 48.199219 L 19.75 48.199219 C 21.433594 47.875 23.109375 47.914062 24.777344 48.320312 C 26.445312 48.726562 27.953125 49.457031 29.300781 50.515625 " fill-opacity="1" fill-rule="nonzero"/><g clip-path="url(#c36d3d20c8)"><path fill="#ffffff" d="M 133.230469 85.242188 C 131.535156 85.574219 129.847656 85.539062 128.167969 85.132812 C 126.492188 84.730469 124.972656 83.992188 123.617188 82.921875 L 123.40625 82.742188 C 123.308594 82.675781 123.203125 82.664062 123.089844 82.699219 C 122.976562 82.738281 122.902344 82.8125 122.863281 82.921875 L 122.863281 83.164062 C 122.089844 85.347656 121.164062 87.46875 120.089844 89.519531 C 119.015625 91.574219 117.800781 93.542969 116.449219 95.425781 C 115.097656 97.308594 113.621094 99.085938 112.015625 100.757812 C 110.410156 102.433594 108.699219 103.984375 106.875 105.417969 C 105.050781 106.847656 103.136719 108.144531 101.128906 109.308594 C 99.125 110.46875 97.046875 111.484375 94.894531 112.351562 C 92.746094 113.21875 90.546875 113.929688 88.292969 114.488281 C 86.042969 115.046875 83.765625 115.441406 81.460938 115.675781 C 79.152344 115.914062 76.839844 115.984375 74.523438 115.894531 C 72.207031 115.804688 69.90625 115.550781 67.628906 115.132812 C 65.347656 114.71875 63.105469 114.144531 60.90625 113.414062 C 58.707031 112.679688 56.566406 111.796875 54.492188 110.765625 C 52.417969 109.730469 50.425781 108.554688 48.515625 107.242188 C 46.609375 105.925781 44.800781 104.480469 43.09375 102.910156 C 41.390625 101.339844 39.804688 99.660156 38.335938 97.863281 C 36.867188 96.070312 35.535156 94.183594 34.335938 92.199219 C 34.066406 91.753906 33.738281 91.355469 33.351562 91.003906 C 32.96875 90.652344 32.542969 90.363281 32.078125 90.132812 C 31.609375 89.90625 31.121094 89.746094 30.605469 89.65625 C 30.09375 89.566406 29.578125 89.550781 29.0625 89.609375 C 28.78125 89.570312 28.5 89.570312 28.21875 89.609375 C 27.886719 89.679688 27.566406 89.777344 27.253906 89.910156 C 26.871094 90.066406 26.507812 90.261719 26.167969 90.496094 C 25.828125 90.730469 25.515625 91 25.234375 91.300781 C 24.953125 91.601562 24.707031 91.929688 24.492188 92.285156 C 24.28125 92.640625 24.113281 93.015625 23.980469 93.40625 C 23.851562 93.796875 23.765625 94.199219 23.722656 94.609375 C 23.679688 95.019531 23.679688 95.433594 23.726562 95.84375 C 23.769531 96.253906 23.859375 96.652344 23.992188 97.046875 C 24.125 97.4375 24.296875 97.808594 24.511719 98.164062 C 25.855469 100.375 27.335938 102.492188 28.949219 104.515625 C 30.5625 106.535156 32.300781 108.449219 34.160156 110.25 C 36.019531 112.046875 37.984375 113.722656 40.058594 115.273438 C 42.132812 116.820312 44.296875 118.230469 46.550781 119.503906 C 48.804688 120.777344 51.132812 121.898438 53.53125 122.875 C 55.929688 123.851562 58.378906 124.667969 60.882812 125.328125 C 63.382812 125.992188 65.917969 126.492188 68.484375 126.828125 C 71.050781 127.167969 73.628906 127.339844 76.21875 127.347656 L 78.296875 127.347656 C 81.878906 127.214844 85.425781 126.785156 88.933594 126.050781 C 91.503906 125.511719 94.03125 124.808594 96.507812 123.9375 C 98.988281 123.066406 101.398438 122.039062 103.746094 120.855469 C 106.089844 119.671875 108.347656 118.339844 110.515625 116.859375 C 112.6875 115.378906 114.75 113.761719 116.710938 112.011719 C 118.667969 110.261719 120.503906 108.394531 122.21875 106.402344 C 123.933594 104.414062 125.507812 102.320312 126.949219 100.125 C 128.390625 97.929688 129.679688 95.648438 130.824219 93.28125 C 131.964844 90.917969 132.949219 88.488281 133.773438 85.996094 L 133.773438 85.664062 C 133.828125 85.535156 133.808594 85.421875 133.71875 85.316406 C 133.625 85.210938 133.515625 85.175781 133.378906 85.210938 Z M 133.230469 85.242188 " fill-opacity="1" fill-rule="nonzero"/></g><g clip-path="url(#68b7fb71d2)"><path fill="#ffffff" d="M 132.265625 80.09375 C 131.691406 80.210938 131.109375 80.253906 130.523438 80.222656 C 129.9375 80.191406 129.367188 80.082031 128.808594 79.898438 C 128.25 79.71875 127.726562 79.46875 127.234375 79.148438 C 126.742188 78.828125 126.300781 78.449219 125.90625 78.015625 L 119.398438 70.785156 C 119.058594 70.410156 118.695312 70.054688 118.304688 69.726562 C 117.917969 69.394531 117.511719 69.09375 117.085938 68.816406 C 116.65625 68.539062 116.214844 68.292969 115.753906 68.074219 C 115.296875 67.855469 114.824219 67.667969 114.339844 67.511719 C 113.855469 67.355469 113.367188 67.230469 112.863281 67.136719 C 112.363281 67.042969 111.859375 66.984375 111.351562 66.957031 C 110.84375 66.933594 110.335938 66.9375 109.832031 66.980469 C 109.324219 67.019531 108.820312 67.089844 108.324219 67.195312 C 107.824219 67.300781 107.335938 67.441406 106.859375 67.609375 C 106.378906 67.777344 105.910156 67.976562 105.457031 68.207031 C 105.003906 68.4375 104.570312 68.699219 104.148438 68.984375 C 103.730469 69.273438 103.332031 69.585938 102.953125 69.925781 C 102.574219 70.265625 102.21875 70.628906 101.886719 71.015625 C 101.558594 71.402344 101.253906 71.808594 100.976562 72.234375 C 100.699219 72.660156 100.449219 73.101562 100.230469 73.558594 C 100.007812 74.019531 99.820312 74.488281 99.660156 74.972656 L 96.648438 84.21875 C 96.464844 84.78125 96.214844 85.308594 95.894531 85.800781 C 95.570312 86.296875 95.191406 86.742188 94.753906 87.136719 C 94.3125 87.53125 93.828125 87.859375 93.304688 88.125 C 92.777344 88.394531 92.222656 88.585938 91.644531 88.707031 C 91.074219 88.828125 90.492188 88.875 89.90625 88.839844 C 89.320312 88.808594 88.75 88.699219 88.195312 88.515625 C 87.636719 88.328125 87.117188 88.074219 86.628906 87.75 C 86.140625 87.421875 85.703125 87.039062 85.320312 86.597656 L 78.75 79.429688 C 78.410156 79.054688 78.046875 78.707031 77.660156 78.378906 C 77.273438 78.054688 76.867188 77.753906 76.441406 77.480469 C 76.015625 77.207031 75.574219 76.960938 75.117188 76.746094 C 74.660156 76.527344 74.1875 76.34375 73.707031 76.1875 C 73.226562 76.035156 72.738281 75.910156 72.238281 75.820312 C 71.742188 75.726562 71.238281 75.667969 70.734375 75.644531 C 70.230469 75.617188 69.726562 75.625 69.21875 75.664062 C 68.714844 75.703125 68.214844 75.773438 67.722656 75.878906 C 67.226562 75.984375 66.738281 76.121094 66.261719 76.289062 C 65.785156 76.457031 65.320312 76.652344 64.871094 76.882812 C 64.417969 77.109375 63.984375 77.367188 63.566406 77.652344 C 63.148438 77.9375 62.75 78.246094 62.371094 78.582031 C 61.996094 78.917969 61.640625 79.277344 61.308594 79.660156 C 60.976562 80.042969 60.671875 80.445312 60.394531 80.867188 C 60.117188 81.292969 59.867188 81.730469 59.644531 82.183594 C 59.425781 82.640625 59.234375 83.105469 59.074219 83.585938 L 56.058594 92.832031 C 55.878906 93.390625 55.628906 93.914062 55.3125 94.40625 C 54.992188 94.898438 54.613281 95.339844 54.175781 95.734375 C 53.738281 96.125 53.257812 96.453125 52.734375 96.714844 C 52.210938 96.980469 51.664062 97.171875 51.089844 97.289062 C 50.511719 97.414062 49.929688 97.464844 49.34375 97.4375 C 48.753906 97.40625 48.179688 97.304688 47.617188 97.125 C 47.058594 96.945312 46.53125 96.695312 46.035156 96.375 C 45.539062 96.054688 45.09375 95.679688 44.699219 95.242188 L 38.222656 88.011719 C 37.878906 87.636719 37.515625 87.28125 37.128906 86.953125 C 36.738281 86.625 36.332031 86.320312 35.90625 86.046875 C 35.476562 85.769531 35.035156 85.523438 34.574219 85.304688 C 34.113281 85.085938 33.640625 84.898438 33.160156 84.742188 C 32.675781 84.585938 32.179688 84.460938 31.679688 84.371094 C 31.179688 84.277344 30.675781 84.21875 30.167969 84.191406 C 29.660156 84.167969 29.152344 84.175781 28.644531 84.214844 C 28.136719 84.253906 27.636719 84.328125 27.136719 84.433594 C 26.640625 84.542969 26.152344 84.679688 25.671875 84.851562 C 25.191406 85.019531 24.726562 85.222656 24.273438 85.453125 C 23.820312 85.683594 23.382812 85.945312 22.964844 86.230469 C 22.542969 86.519531 22.144531 86.835938 21.765625 87.175781 C 21.390625 87.515625 21.035156 87.878906 20.703125 88.265625 C 20.375 88.652344 20.070312 89.058594 19.792969 89.488281 C 19.515625 89.914062 19.269531 90.355469 19.050781 90.816406 C 18.832031 91.273438 18.640625 91.746094 18.484375 92.230469 L 15.472656 101.113281 C 15.355469 101.503906 15.207031 101.878906 15.027344 102.238281 C 14.847656 102.601562 14.636719 102.945312 14.394531 103.269531 C 14.152344 103.59375 13.886719 103.894531 13.59375 104.171875 C 13.296875 104.453125 12.984375 104.703125 12.644531 104.925781 C 12.308594 105.148438 11.953125 105.339844 11.582031 105.5 C 11.210938 105.660156 10.828125 105.789062 10.433594 105.882812 C 10.039062 105.976562 9.640625 106.035156 9.238281 106.058594 C 8.832031 106.082031 8.429688 106.070312 8.027344 106.023438 C 7.542969 105.957031 7.074219 105.835938 6.613281 105.664062 C 6.15625 105.492188 5.722656 105.273438 5.3125 105.007812 C 4.902344 104.742188 4.527344 104.433594 4.183594 104.082031 C 3.84375 103.734375 3.542969 103.351562 3.28125 102.9375 C 3.023438 102.523438 2.8125 102.085938 2.652344 101.625 C 2.488281 101.164062 2.378906 100.6875 2.320312 100.203125 C 2.261719 99.71875 2.257812 99.234375 2.304688 98.746094 C 2.351562 98.257812 2.453125 97.785156 2.605469 97.320312 L 15.472656 57.894531 C 15.65625 57.332031 15.910156 56.804688 16.238281 56.3125 C 16.566406 55.820312 16.949219 55.378906 17.394531 54.988281 C 17.839844 54.597656 18.328125 54.277344 18.863281 54.019531 C 19.394531 53.757812 19.953125 53.578125 20.535156 53.46875 C 21.109375 53.34375 21.691406 53.292969 22.28125 53.320312 C 22.867188 53.351562 23.441406 53.453125 24.003906 53.632812 C 24.5625 53.8125 25.09375 54.0625 25.585938 54.382812 C 26.082031 54.703125 26.527344 55.078125 26.921875 55.515625 L 33.550781 62.683594 C 34.234375 63.441406 35.003906 64.101562 35.859375 64.65625 C 36.714844 65.210938 37.628906 65.648438 38.601562 65.960938 C 39.570312 66.277344 40.566406 66.460938 41.585938 66.515625 C 42.605469 66.570312 43.613281 66.488281 44.613281 66.277344 C 45.613281 66.066406 46.566406 65.726562 47.476562 65.265625 C 48.386719 64.800781 49.21875 64.226562 49.976562 63.546875 C 50.738281 62.863281 51.394531 62.09375 51.949219 61.238281 C 52.507812 60.382812 52.941406 59.46875 53.257812 58.496094 L 56.269531 49.25 C 56.449219 48.691406 56.699219 48.164062 57.019531 47.667969 C 57.339844 47.171875 57.71875 46.726562 58.15625 46.332031 C 58.59375 45.9375 59.074219 45.605469 59.597656 45.339844 C 60.125 45.070312 60.675781 44.875 61.25 44.753906 C 61.828125 44.632812 62.410156 44.585938 63 44.617188 C 63.585938 44.648438 64.164062 44.757812 64.722656 44.941406 C 65.28125 45.125 65.808594 45.378906 66.300781 45.699219 C 66.796875 46.023438 67.238281 46.402344 67.628906 46.84375 L 74.140625 54.070312 C 74.480469 54.445312 74.84375 54.796875 75.230469 55.125 C 75.617188 55.453125 76.023438 55.757812 76.449219 56.03125 C 76.875 56.308594 77.316406 56.554688 77.773438 56.769531 C 78.230469 56.988281 78.703125 57.175781 79.183594 57.332031 C 79.667969 57.484375 80.15625 57.609375 80.65625 57.703125 C 81.15625 57.792969 81.65625 57.851562 82.164062 57.878906 C 82.667969 57.90625 83.175781 57.898438 83.679688 57.855469 C 84.1875 57.816406 84.6875 57.746094 85.183594 57.640625 C 85.679688 57.535156 86.167969 57.394531 86.644531 57.226562 C 87.121094 57.058594 87.585938 56.859375 88.039062 56.628906 C 88.492188 56.398438 88.925781 56.140625 89.34375 55.851562 C 89.761719 55.566406 90.160156 55.253906 90.535156 54.914062 C 90.914062 54.574219 91.265625 54.214844 91.597656 53.828125 C 91.925781 53.445312 92.230469 53.039062 92.507812 52.613281 C 92.785156 52.191406 93.03125 51.75 93.25 51.292969 C 93.46875 50.835938 93.65625 50.367188 93.816406 49.882812 L 96.828125 40.636719 C 97.003906 40.078125 97.253906 39.546875 97.570312 39.050781 C 97.886719 38.554688 98.265625 38.113281 98.703125 37.71875 C 99.140625 37.324219 99.621094 36.992188 100.148438 36.726562 C 100.671875 36.460938 101.222656 36.269531 101.800781 36.152344 C 102.378906 36.027344 102.960938 35.980469 103.550781 36.011719 C 104.140625 36.042969 104.714844 36.148438 105.273438 36.332031 C 105.835938 36.511719 106.363281 36.765625 106.859375 37.085938 C 107.351562 37.410156 107.796875 37.789062 108.1875 38.230469 L 114.699219 45.457031 C 115.382812 46.214844 116.152344 46.871094 117.007812 47.425781 C 117.867188 47.980469 118.78125 48.417969 119.753906 48.730469 C 120.726562 49.046875 121.722656 49.230469 122.742188 49.28125 C 123.761719 49.332031 124.769531 49.253906 125.769531 49.039062 C 126.769531 48.824219 127.722656 48.484375 128.632812 48.019531 C 129.542969 47.554688 130.375 46.980469 131.132812 46.296875 C 131.890625 45.613281 132.546875 44.839844 133.101562 43.984375 C 133.65625 43.125 134.089844 42.210938 134.40625 41.242188 L 137.417969 32.355469 C 137.535156 31.96875 137.683594 31.59375 137.867188 31.230469 C 138.046875 30.867188 138.261719 30.523438 138.503906 30.199219 C 138.746094 29.875 139.015625 29.574219 139.308594 29.292969 C 139.605469 29.015625 139.921875 28.765625 140.261719 28.542969 C 140.601562 28.320312 140.957031 28.128906 141.328125 27.96875 C 141.699219 27.808594 142.085938 27.679688 142.480469 27.585938 C 142.875 27.492188 143.273438 27.433594 143.679688 27.410156 C 144.082031 27.386719 144.488281 27.398438 144.890625 27.445312 C 145.375 27.515625 145.84375 27.636719 146.300781 27.8125 C 146.753906 27.984375 147.1875 28.203125 147.597656 28.472656 C 148.003906 28.738281 148.378906 29.046875 148.71875 29.398438 C 149.058594 29.746094 149.359375 30.128906 149.617188 30.542969 C 149.871094 30.957031 150.082031 31.394531 150.242188 31.855469 C 150.40625 32.316406 150.515625 32.789062 150.570312 33.273438 C 150.628906 33.757812 150.632812 34.242188 150.585938 34.726562 C 150.535156 35.210938 150.4375 35.6875 150.285156 36.152344 L 137.476562 75.605469 C 137.292969 76.164062 137.039062 76.691406 136.71875 77.183594 C 136.394531 77.679688 136.015625 78.121094 135.574219 78.515625 C 135.136719 78.910156 134.65625 79.238281 134.128906 79.507812 C 133.605469 79.773438 133.050781 79.96875 132.476562 80.09375 " fill-opacity="1" fill-rule="nonzero"/></g><g clip-path="url(#a63d1117f5)"><path fill="#ffffff" d="M 249.691406 45.902344 C 250.699219 45.902344 251.214844 46.445312 251.214844 47.539062 L 251.214844 83.140625 C 251.246094 83.355469 251.226562 83.5625 251.160156 83.765625 C 251.09375 83.96875 250.984375 84.148438 250.835938 84.300781 C 250.6875 84.453125 250.511719 84.5625 250.308594 84.632812 C 250.109375 84.703125 249.902344 84.726562 249.691406 84.699219 L 242.839844 84.699219 C 242.628906 84.730469 242.417969 84.710938 242.214844 84.644531 C 242.007812 84.574219 241.828125 84.464844 241.675781 84.3125 C 241.523438 84.160156 241.414062 83.980469 241.347656 83.773438 C 241.277344 83.566406 241.257812 83.355469 241.289062 83.140625 L 241.289062 47.539062 C 241.289062 46.445312 241.808594 45.902344 242.839844 45.902344 Z M 249.691406 31.566406 C 249.894531 31.546875 250.09375 31.570312 250.285156 31.640625 C 250.476562 31.707031 250.644531 31.816406 250.789062 31.964844 C 250.933594 32.109375 251.035156 32.28125 251.101562 32.476562 C 251.167969 32.667969 251.1875 32.867188 251.164062 33.074219 L 251.164062 39.824219 C 251.164062 40.914062 250.648438 41.460938 249.640625 41.460938 L 242.789062 41.460938 C 242.566406 41.492188 242.347656 41.472656 242.132812 41.398438 C 241.921875 41.328125 241.734375 41.210938 241.578125 41.046875 C 241.417969 40.886719 241.304688 40.699219 241.238281 40.484375 C 241.167969 40.269531 241.152344 40.046875 241.1875 39.824219 L 241.1875 33.074219 C 241.1875 32.058594 241.703125 31.539062 242.789062 31.539062 Z M 249.691406 31.566406 " fill-opacity="1" fill-rule="nonzero"/></g><g clip-path="url(#deccc8b18d)"><path fill="#ffffff" d="M 303.148438 45.902344 C 303.320312 45.878906 303.488281 45.898438 303.65625 45.953125 C 303.820312 46.011719 303.960938 46.101562 304.085938 46.226562 C 304.207031 46.351562 304.292969 46.5 304.347656 46.664062 C 304.402344 46.832031 304.414062 47 304.390625 47.175781 L 304.390625 53.121094 C 304.414062 53.292969 304.402344 53.464844 304.347656 53.628906 C 304.292969 53.796875 304.207031 53.941406 304.085938 54.066406 C 303.960938 54.191406 303.820312 54.285156 303.65625 54.339844 C 303.488281 54.398438 303.320312 54.417969 303.148438 54.394531 L 276.03125 54.394531 C 274.757812 54.363281 273.5 54.492188 272.257812 54.785156 C 271.367188 54.980469 270.597656 55.402344 269.957031 56.054688 C 269.332031 56.738281 268.9375 57.535156 268.769531 58.445312 C 268.511719 59.667969 268.390625 60.90625 268.40625 62.160156 L 268.40625 68.445312 C 268.386719 69.710938 268.507812 70.96875 268.769531 72.210938 C 268.949219 73.105469 269.34375 73.894531 269.957031 74.574219 C 270.605469 75.214844 271.371094 75.636719 272.257812 75.84375 C 273.5 76.136719 274.757812 76.265625 276.03125 76.234375 L 303.148438 76.234375 C 303.320312 76.210938 303.488281 76.230469 303.65625 76.289062 C 303.820312 76.34375 303.960938 76.4375 304.085938 76.5625 C 304.207031 76.6875 304.292969 76.832031 304.347656 76.996094 C 304.402344 77.164062 304.414062 77.335938 304.390625 77.507812 L 304.390625 83.429688 C 304.414062 83.601562 304.402344 83.769531 304.347656 83.9375 C 304.292969 84.105469 304.207031 84.25 304.085938 84.375 C 303.960938 84.5 303.820312 84.589844 303.65625 84.648438 C 303.488281 84.707031 303.320312 84.722656 303.148438 84.699219 L 275.050781 84.699219 C 272.375 84.753906 269.730469 84.492188 267.113281 83.921875 C 265.167969 83.5 263.445312 82.636719 261.945312 81.324219 C 260.609375 80.09375 259.6875 78.605469 259.179688 76.859375 C 258.574219 74.726562 258.296875 72.554688 258.351562 70.339844 L 258.351562 60.238281 C 258.300781 58.023438 258.574219 55.851562 259.179688 53.71875 C 259.6875 51.972656 260.609375 50.484375 261.945312 49.25 C 263.453125 47.953125 265.175781 47.089844 267.113281 46.65625 C 269.726562 46.074219 272.375 45.804688 275.050781 45.851562 Z M 303.148438 45.902344 " fill-opacity="1" fill-rule="nonzero"/></g><g clip-path="url(#004c9ced11)"><path fill="#ffffff" d="M 347.042969 45.902344 C 347.214844 45.878906 347.382812 45.898438 347.546875 45.953125 C 347.710938 46.011719 347.855469 46.101562 347.976562 46.226562 C 348.097656 46.351562 348.1875 46.5 348.242188 46.664062 C 348.292969 46.832031 348.308594 47 348.28125 47.175781 L 348.28125 53.121094 C 348.308594 53.292969 348.292969 53.464844 348.242188 53.628906 C 348.1875 53.796875 348.097656 53.941406 347.976562 54.066406 C 347.855469 54.191406 347.710938 54.285156 347.546875 54.339844 C 347.382812 54.398438 347.214844 54.417969 347.042969 54.394531 L 328.457031 54.394531 C 327.199219 54.367188 325.957031 54.496094 324.734375 54.785156 C 323.835938 54.984375 323.0625 55.410156 322.40625 56.054688 C 321.753906 56.726562 321.339844 57.523438 321.167969 58.445312 C 320.960938 59.675781 320.890625 60.914062 320.960938 62.160156 L 320.960938 83.140625 C 320.988281 83.355469 320.972656 83.566406 320.902344 83.773438 C 320.835938 83.980469 320.726562 84.160156 320.570312 84.3125 C 320.417969 84.464844 320.242188 84.574219 320.035156 84.644531 C 319.832031 84.710938 319.621094 84.730469 319.410156 84.699219 L 312.429688 84.699219 C 312.210938 84.734375 312 84.71875 311.789062 84.652344 C 311.582031 84.585938 311.398438 84.476562 311.242188 84.324219 C 311.082031 84.171875 310.96875 83.988281 310.894531 83.78125 C 310.820312 83.574219 310.800781 83.359375 310.828125 83.140625 L 310.828125 60.238281 C 310.78125 58.019531 311.066406 55.847656 311.679688 53.71875 C 312.179688 51.972656 313.089844 50.484375 314.417969 49.25 C 315.933594 47.964844 317.65625 47.097656 319.589844 46.65625 C 322.203125 46.074219 324.847656 45.804688 327.523438 45.851562 Z M 347.042969 45.902344 " fill-opacity="1" fill-rule="nonzero"/></g><g clip-path="url(#6f408160b9)"><path fill="#ffffff" d="M 363.25 68.652344 C 363.21875 69.917969 363.332031 71.175781 363.585938 72.417969 C 363.671875 72.863281 363.820312 73.285156 364.03125 73.6875 C 364.242188 74.089844 364.507812 74.453125 364.824219 74.773438 C 365.140625 75.097656 365.5 75.367188 365.894531 75.585938 C 366.292969 75.804688 366.710938 75.960938 367.152344 76.054688 C 368.371094 76.339844 369.601562 76.46875 370.851562 76.441406 L 388.6875 76.441406 C 389.960938 76.472656 391.21875 76.339844 392.460938 76.054688 C 392.902344 75.960938 393.320312 75.804688 393.71875 75.585938 C 394.113281 75.367188 394.472656 75.097656 394.789062 74.773438 C 395.105469 74.453125 395.371094 74.089844 395.582031 73.6875 C 395.792969 73.285156 395.941406 72.863281 396.027344 72.417969 C 396.28125 71.175781 396.394531 69.917969 396.363281 68.652344 L 396.363281 61.949219 C 396.355469 60.707031 396.210938 59.476562 395.925781 58.261719 C 395.738281 57.347656 395.324219 56.550781 394.683594 55.875 C 394.039062 55.207031 393.265625 54.78125 392.355469 54.601562 C 391.113281 54.335938 389.855469 54.214844 388.582031 54.238281 L 370.746094 54.238281 C 369.5 54.21875 368.269531 54.339844 367.050781 54.601562 C 366.144531 54.78125 365.367188 55.207031 364.722656 55.875 C 364.082031 56.550781 363.667969 57.347656 363.484375 58.261719 C 363.234375 59.480469 363.121094 60.710938 363.148438 61.949219 Z M 389.667969 45.902344 C 392.285156 45.871094 394.871094 46.140625 397.421875 46.707031 C 399.359375 47.148438 401.082031 48.015625 402.59375 49.304688 C 403.972656 50.550781 404.925781 52.066406 405.460938 53.847656 C 406.054688 55.980469 406.328125 58.152344 406.289062 60.367188 L 406.289062 70.574219 C 406.332031 72.785156 406.054688 74.960938 405.460938 77.089844 C 404.945312 78.832031 404.023438 80.320312 402.695312 81.558594 C 401.191406 82.859375 399.46875 83.726562 397.527344 84.15625 C 394.972656 84.710938 392.386719 84.972656 389.773438 84.933594 L 369.996094 84.933594 C 367.320312 84.988281 364.675781 84.726562 362.0625 84.15625 C 360.121094 83.722656 358.398438 82.859375 356.890625 81.558594 C 355.5625 80.324219 354.648438 78.835938 354.152344 77.089844 C 353.535156 74.960938 353.253906 72.789062 353.296875 70.574219 L 353.296875 60.238281 C 353.253906 58.019531 353.539062 55.847656 354.152344 53.71875 C 354.648438 51.972656 355.5625 50.484375 356.890625 49.25 C 358.402344 47.964844 360.128906 47.097656 362.0625 46.65625 C 364.675781 46.074219 367.320312 45.804688 369.996094 45.851562 Z M 389.667969 45.902344 " fill-opacity="1" fill-rule="nonzero"/></g><g clip-path="url(#a776433ce0)"><path fill="#ffffff" d="M 419.1875 45.902344 C 419.367188 45.882812 419.546875 45.898438 419.71875 45.945312 C 419.894531 45.992188 420.054688 46.066406 420.203125 46.171875 C 420.351562 46.277344 420.472656 46.40625 420.574219 46.554688 C 420.675781 46.707031 420.75 46.867188 420.792969 47.042969 L 429.8125 76.078125 C 429.859375 76.230469 429.949219 76.351562 430.078125 76.445312 C 430.207031 76.535156 430.351562 76.578125 430.511719 76.570312 L 430.796875 76.570312 C 431.210938 76.570312 431.441406 76.417969 431.492188 76.078125 L 440.929688 49.304688 C 441.238281 48.285156 441.792969 47.417969 442.582031 46.707031 C 443.4375 46.128906 444.375 45.878906 445.402344 45.953125 L 453.726562 45.953125 C 454.75 45.882812 455.6875 46.132812 456.542969 46.707031 C 457.335938 47.417969 457.886719 48.285156 458.195312 49.304688 L 467.554688 76.078125 C 467.554688 76.417969 467.839844 76.570312 468.253906 76.570312 L 468.535156 76.570312 C 468.695312 76.574219 468.835938 76.53125 468.964844 76.441406 C 469.09375 76.347656 469.183594 76.226562 469.234375 76.078125 L 478.308594 47.042969 C 478.4375 46.292969 478.980469 45.902344 479.910156 45.902344 L 487.820312 45.902344 C 488.300781 45.828125 488.6875 45.984375 488.984375 46.371094 C 489.136719 46.777344 489.136719 47.183594 488.984375 47.589844 L 478.359375 80.3125 C 478.0625 81.695312 477.398438 82.875 476.367188 83.84375 C 475.332031 84.5 474.203125 84.785156 472.984375 84.699219 L 464.167969 84.699219 C 463.101562 84.777344 462.171875 84.457031 461.375 83.738281 C 460.5 82.734375 459.871094 81.59375 459.488281 80.3125 L 450.210938 54.523438 C 450.167969 54.390625 450.089844 54.285156 449.972656 54.207031 C 449.855469 54.128906 449.726562 54.09375 449.589844 54.109375 L 449.175781 54.109375 C 448.789062 54.109375 448.582031 54.109375 448.527344 54.523438 L 439.378906 80.3125 C 439.007812 81.597656 438.378906 82.742188 437.492188 83.738281 C 436.695312 84.457031 435.765625 84.777344 434.699219 84.699219 L 425.882812 84.699219 C 424.664062 84.78125 423.535156 84.496094 422.496094 83.84375 C 421.46875 82.875 420.804688 81.695312 420.507812 80.3125 L 410.039062 47.589844 C 409.875 47.183594 409.875 46.777344 410.039062 46.371094 C 410.167969 46.058594 410.554688 45.902344 411.226562 45.902344 Z M 419.1875 45.902344 " fill-opacity="1" fill-rule="nonzero"/></g><g clip-path="url(#bab0f10aba)"><path fill="#ffffff" d="M 225.316406 84.699219 C 224.945312 84.738281 224.613281 84.652344 224.308594 84.441406 C 224.003906 84.226562 223.804688 83.941406 223.710938 83.585938 L 214.691406 54.523438 C 214.644531 54.371094 214.554688 54.25 214.425781 54.15625 C 214.296875 54.066406 214.152344 54.023438 213.992188 54.03125 L 213.707031 54.03125 C 213.292969 54.03125 213.0625 54.1875 213.011719 54.523438 L 203.574219 81.324219 C 203.261719 82.335938 202.71875 83.203125 201.945312 83.921875 C 201.082031 84.484375 200.132812 84.730469 199.101562 84.648438 L 190.804688 84.648438 C 189.777344 84.730469 188.828125 84.488281 187.960938 83.921875 C 187.1875 83.203125 186.644531 82.335938 186.332031 81.324219 L 176.949219 54.523438 C 176.949219 54.1875 176.664062 54.03125 176.25 54.03125 L 176.199219 54.03125 C 176.042969 54.023438 175.898438 54.066406 175.765625 54.15625 C 175.636719 54.25 175.550781 54.371094 175.503906 54.523438 L 166.402344 83.585938 C 166.402344 84.335938 165.730469 84.699219 164.800781 84.699219 L 156.890625 84.699219 C 156.296875 84.699219 155.90625 84.542969 155.753906 84.257812 C 155.597656 83.84375 155.597656 83.429688 155.753906 83.011719 L 166.375 50.289062 C 166.691406 48.914062 167.355469 47.738281 168.367188 46.757812 C 169.414062 46.105469 170.550781 45.820312 171.78125 45.902344 L 180.570312 45.902344 C 181.632812 45.824219 182.566406 46.144531 183.359375 46.863281 C 184.238281 47.867188 184.867188 49.011719 185.246094 50.289062 L 194.292969 76.078125 C 194.335938 76.21875 194.421875 76.328125 194.542969 76.40625 C 194.664062 76.484375 194.796875 76.511719 194.941406 76.496094 L 195.355469 76.496094 C 195.714844 76.496094 195.921875 76.496094 195.976562 76.078125 L 205.125 50.289062 C 205.515625 49.015625 206.144531 47.871094 207.011719 46.863281 C 207.808594 46.144531 208.738281 45.824219 209.804688 45.902344 L 218.621094 45.902344 C 219.839844 45.816406 220.96875 46.105469 222.007812 46.757812 C 223.027344 47.734375 223.691406 48.910156 223.996094 50.289062 L 234.492188 83.011719 C 234.625 83.429688 234.625 83.84375 234.492188 84.257812 C 234.335938 84.542969 233.949219 84.699219 233.300781 84.699219 Z M 225.316406 84.699219 " fill-opacity="1" fill-rule="nonzero"/></g><g clip-path="url(#7e4797a1b9)"><path fill="#ffffff" d="M 501.910156 61.949219 L 530.214844 61.949219 C 530.378906 61.980469 530.539062 61.964844 530.699219 61.914062 C 530.859375 61.863281 530.996094 61.78125 531.113281 61.660156 C 531.234375 61.542969 531.316406 61.402344 531.367188 61.242188 C 531.417969 61.085938 531.429688 60.921875 531.402344 60.757812 L 531.402344 57.769531 C 531.515625 56.617188 531.214844 55.585938 530.5 54.679688 C 529.503906 53.914062 528.382812 53.601562 527.136719 53.746094 L 509.664062 53.746094 C 508.589844 53.625 507.527344 53.691406 506.476562 53.941406 C 505.425781 54.191406 504.445312 54.609375 503.539062 55.199219 C 502.945312 55.855469 502.511719 56.605469 502.238281 57.445312 C 501.964844 58.289062 501.871094 59.148438 501.960938 60.03125 Z M 529.101562 45.902344 C 531.089844 45.863281 533.054688 46.0625 534.996094 46.5 C 536.414062 46.824219 537.652344 47.480469 538.71875 48.472656 C 539.683594 49.5 540.320312 50.707031 540.632812 52.082031 C 541.035156 53.859375 541.226562 55.660156 541.199219 57.484375 L 541.199219 64.238281 C 541.261719 64.804688 541.207031 65.363281 541.035156 65.910156 C 540.863281 66.457031 540.59375 66.945312 540.21875 67.378906 C 539.324219 68.0625 538.316406 68.355469 537.195312 68.261719 L 501.910156 68.261719 L 501.910156 69.949219 C 501.839844 70.800781 501.9375 71.636719 502.207031 72.445312 C 502.476562 73.257812 502.894531 73.984375 503.460938 74.625 C 504.359375 75.238281 505.335938 75.671875 506.386719 75.929688 C 507.441406 76.191406 508.507812 76.257812 509.585938 76.128906 L 538.71875 76.128906 C 538.894531 76.105469 539.066406 76.117188 539.234375 76.171875 C 539.402344 76.230469 539.546875 76.320312 539.671875 76.445312 C 539.796875 76.570312 539.886719 76.71875 539.941406 76.886719 C 540 77.054688 540.011719 77.226562 539.984375 77.402344 L 539.984375 83.324219 C 540.011719 83.5 540 83.671875 539.941406 83.839844 C 539.886719 84.007812 539.796875 84.15625 539.671875 84.28125 C 539.546875 84.410156 539.402344 84.5 539.234375 84.554688 C 539.066406 84.609375 538.894531 84.625 538.71875 84.597656 L 508.605469 84.597656 C 505.929688 84.648438 503.28125 84.390625 500.667969 83.816406 C 498.722656 83.398438 497 82.53125 495.5 81.222656 C 494.152344 79.996094 493.230469 78.507812 492.730469 76.753906 C 492.117188 74.625 491.832031 72.453125 491.878906 70.234375 L 491.878906 60.238281 C 491.835938 58.019531 492.121094 55.847656 492.730469 53.71875 C 493.230469 51.964844 494.152344 50.476562 495.5 49.25 C 497.007812 47.953125 498.730469 47.089844 500.667969 46.65625 C 503.28125 46.074219 505.925781 45.804688 508.605469 45.851562 Z M 529.101562 45.902344 " fill-opacity="1" fill-rule="nonzero"/></g><g clip-path="url(#5db44870a4)"><path fill="#ffffff" d="M 558.417969 54.394531 L 558.417969 68.445312 C 558.398438 69.710938 558.519531 70.96875 558.777344 72.210938 C 558.957031 73.113281 559.363281 73.902344 559.992188 74.574219 C 560.660156 75.195312 561.4375 75.621094 562.320312 75.84375 C 563.546875 76.121094 564.785156 76.242188 566.042969 76.207031 L 583.644531 76.207031 C 584.917969 76.246094 586.175781 76.125 587.421875 75.84375 C 588.320312 75.652344 589.113281 75.246094 589.796875 74.625 C 590.417969 73.949219 590.824219 73.160156 591.011719 72.261719 C 591.265625 71.019531 591.375 69.761719 591.347656 68.496094 L 591.347656 62.160156 C 591.375 60.910156 591.261719 59.671875 591.011719 58.445312 C 590.835938 57.53125 590.429688 56.734375 589.796875 56.054688 C 589.128906 55.421875 588.34375 54.996094 587.445312 54.785156 C 586.203125 54.492188 584.945312 54.363281 583.671875 54.394531 Z M 556.890625 31.695312 C 557.101562 31.671875 557.308594 31.691406 557.511719 31.761719 C 557.710938 31.832031 557.886719 31.945312 558.035156 32.097656 C 558.1875 32.25 558.292969 32.429688 558.359375 32.632812 C 558.429688 32.835938 558.445312 33.042969 558.417969 33.253906 L 558.417969 45.902344 L 584.628906 45.902344 C 587.296875 45.863281 589.933594 46.128906 592.539062 46.707031 C 594.476562 47.144531 596.199219 48.011719 597.707031 49.304688 C 599.039062 50.5625 599.941406 52.078125 600.421875 53.847656 C 601.027344 55.980469 601.300781 58.152344 601.25 60.367188 L 601.25 70.546875 C 601.304688 72.769531 601.027344 74.953125 600.421875 77.089844 C 599.863281 78.800781 598.90625 80.246094 597.554688 81.429688 C 596.050781 82.734375 594.328125 83.601562 592.382812 84.027344 C 589.777344 84.59375 587.140625 84.851562 584.472656 84.804688 L 564.90625 84.804688 C 562.230469 84.859375 559.585938 84.597656 556.96875 84.027344 C 555.023438 83.605469 553.300781 82.738281 551.800781 81.429688 C 550.464844 80.199219 549.542969 78.707031 549.035156 76.960938 C 548.417969 74.824219 548.132812 72.640625 548.179688 70.417969 L 548.179688 33.253906 C 548.179688 32.214844 548.722656 31.695312 549.808594 31.695312 Z M 556.890625 31.695312 " fill-opacity="1" fill-rule="nonzero"/></g></svg>