<svg  xmlns="http://www.w3.org/2000/svg" viewBox="0 0 737.32 130.84"><defs><style>.cls-1{fill:#fff;}</style></defs><title>Asset 28</title><g id="Layer_2" data-name="Layer 2"><g id="logo"><path class="cls-1" d="M28.91,47.93l.24.19a.38.38,0,0,0,.58-.17l.1-.29a52.86,52.86,0,0,1,39-34.25A53,53,0,0,1,125.29,37.9a6.18,6.18,0,0,0,5.28,3,4.6,4.6,0,0,0,1.3-.17,6.37,6.37,0,0,0,.66-.21,6.14,6.14,0,0,0,3.72-3.75,6.24,6.24,0,0,0-.55-5.34A65.31,65.31,0,0,0,17.91,44.66l-.12.36a.37.37,0,0,0,.42.48l.38-.07A12.84,12.84,0,0,1,28.91,47.93Z"/><path class="cls-1" d="M141.16,85.39a12.88,12.88,0,0,1-10.36-2.51l-.25-.19a.37.37,0,0,0-.57.17l-.1.29a53.11,53.11,0,0,1-95.51,9.78,6,6,0,0,0-5.61-3,4.8,4.8,0,0,0-.9.12,7.31,7.31,0,0,0-1,.34,6.08,6.08,0,0,0-3.49,3.73,6.17,6.17,0,0,0,.58,5.18,65.49,65.49,0,0,0,55.8,31.51c.75,0,1.5,0,2.25,0a66.57,66.57,0,0,0,11.48-1.41,65,65,0,0,0,48.38-43.24l.13-.36a.37.37,0,0,0-.43-.48Z"/><path class="cls-1" d="M140.14,79.81a7.23,7.23,0,0,1-6.88-2.23l-7-7.8A12.56,12.56,0,0,0,105,74.3l-3.24,10a7.24,7.24,0,0,1-12.26,2.61l-7-7.8a12.56,12.56,0,0,0-21.28,4.52l-3.24,10A7.24,7.24,0,0,1,45.66,96.2l-7-7.8a12.56,12.56,0,0,0-21.28,4.52l-3.12,9.61a7.52,7.52,0,0,1-8,5.3,7.24,7.24,0,0,1-5.83-9.4L14.19,55.84a7.24,7.24,0,0,1,12.26-2.6l7,7.79a12.56,12.56,0,0,0,21.28-4.52l3.24-10a7.24,7.24,0,0,1,12.26-2.6l7,7.79A12.56,12.56,0,0,0,98.55,47.2l3.24-10a7.24,7.24,0,0,1,12.26-2.6l7,7.79a12.56,12.56,0,0,0,21.28-4.52l3.12-9.6a7.5,7.5,0,0,1,8.05-5.3,7.23,7.23,0,0,1,5.83,9.4L145.51,75A7.19,7.19,0,0,1,140.14,79.81Z"/><path class="cls-1" d="M28.91,47.93l.24.19a.38.38,0,0,0,.58-.17l.1-.29a52.86,52.86,0,0,1,39-34.25A53,53,0,0,1,125.29,37.9a6.18,6.18,0,0,0,5.28,3,4.6,4.6,0,0,0,1.3-.17,6.37,6.37,0,0,0,.66-.21,6.14,6.14,0,0,0,3.72-3.75,6.24,6.24,0,0,0-.55-5.34A65.31,65.31,0,0,0,17.91,44.66l-.12.36a.37.37,0,0,0,.42.48l.38-.07A12.84,12.84,0,0,1,28.91,47.93Z"/><path class="cls-1" d="M141.16,85.39a12.88,12.88,0,0,1-10.36-2.51l-.25-.19a.37.37,0,0,0-.57.17l-.1.29a53.11,53.11,0,0,1-95.51,9.78,6,6,0,0,0-5.61-3,4.8,4.8,0,0,0-.9.12,7.31,7.31,0,0,0-1,.34,6.08,6.08,0,0,0-3.49,3.73,6.17,6.17,0,0,0,.58,5.18,65.49,65.49,0,0,0,55.8,31.51c.75,0,1.5,0,2.25,0a66.57,66.57,0,0,0,11.48-1.41,65,65,0,0,0,48.38-43.24l.13-.36a.37.37,0,0,0-.43-.48Z"/><path class="cls-1" d="M140.14,79.81a7.23,7.23,0,0,1-6.88-2.23l-7-7.8A12.56,12.56,0,0,0,105,74.3l-3.24,10a7.24,7.24,0,0,1-12.26,2.61l-7-7.8a12.56,12.56,0,0,0-21.28,4.52l-3.24,10A7.24,7.24,0,0,1,45.66,96.2l-7-7.8a12.56,12.56,0,0,0-21.28,4.52l-3.12,9.61a7.52,7.52,0,0,1-8,5.3,7.24,7.24,0,0,1-5.83-9.4L14.19,55.84a7.24,7.24,0,0,1,12.26-2.6l7,7.79a12.56,12.56,0,0,0,21.28-4.52l3.24-10a7.24,7.24,0,0,1,12.26-2.6l7,7.79A12.56,12.56,0,0,0,98.55,47.2l3.24-10a7.24,7.24,0,0,1,12.26-2.6l7,7.79a12.56,12.56,0,0,0,21.28-4.52l3.12-9.6a7.5,7.5,0,0,1,8.05-5.3,7.23,7.23,0,0,1,5.83,9.4L145.51,75A7.19,7.19,0,0,1,140.14,79.81Z"/><path class="cls-1" d="M295.12,41.13c1.28,0,1.93.68,1.93,2V87.76a1.72,1.72,0,0,1-1.93,1.95H286.5a1.71,1.71,0,0,1-1.93-1.95V43.17c0-1.36.64-2,1.93-2Zm0-18a1.71,1.71,0,0,1,1.93,1.94v8.41c0,1.36-.65,2-1.93,2H286.5a1.79,1.79,0,0,1-2-2V25.11c0-1.29.67-1.94,2-1.94Z"/><path class="cls-1" d="M362.36,41.13a1.4,1.4,0,0,1,1.58,1.59v7.44a1.4,1.4,0,0,1-1.58,1.59H328.25a19.32,19.32,0,0,0-4.74.48,6,6,0,0,0-2.9,1.6,6.21,6.21,0,0,0-1.5,3,21.27,21.27,0,0,0-.44,4.65v7.88a21,21,0,0,0,.44,4.69,6.25,6.25,0,0,0,1.5,3,6,6,0,0,0,2.9,1.6,19.32,19.32,0,0,0,4.74.48h34.11a1.41,1.41,0,0,1,1.58,1.6v7.43a1.4,1.4,0,0,1-1.58,1.59H327a42.94,42.94,0,0,1-10-1,14.65,14.65,0,0,1-6.42-3.14A12.16,12.16,0,0,1,307.16,80a28,28,0,0,1-1.06-8.18V59.09a27.91,27.91,0,0,1,1.06-8.18,12.16,12.16,0,0,1,3.47-5.58,15,15,0,0,1,6.42-3.18,41.09,41.09,0,0,1,10-1Z"/><path class="cls-1" d="M417.56,41.13a1.4,1.4,0,0,1,1.58,1.59v7.44a1.4,1.4,0,0,1-1.58,1.59H394.18a19,19,0,0,0-4.67.48,6.43,6.43,0,0,0-2.94,1.6,6,6,0,0,0-1.54,3,21.27,21.27,0,0,0-.44,4.65V87.76a1.71,1.71,0,0,1-1.93,1.95H374a1.76,1.76,0,0,1-2-1.95V59.09a27.91,27.91,0,0,1,1.06-8.18,12.16,12.16,0,0,1,3.47-5.58A15,15,0,0,1,383,42.15a41.09,41.09,0,0,1,10-1Z"/><path class="cls-1" d="M437.94,69.62a20.32,20.32,0,0,0,.45,4.69,6,6,0,0,0,1.54,3,6.23,6.23,0,0,0,2.94,1.59,18.84,18.84,0,0,0,4.66.49h22.41a19.35,19.35,0,0,0,4.75-.49,6.23,6.23,0,0,0,2.94-1.59,6.11,6.11,0,0,0,1.54-3,21,21,0,0,0,.44-4.69v-8.4a20.63,20.63,0,0,0-.44-4.61,6.35,6.35,0,0,0-1.54-3A5.75,5.75,0,0,0,474.69,52a20.65,20.65,0,0,0-4.75-.45H447.53a20.1,20.1,0,0,0-4.66.45,5.75,5.75,0,0,0-2.94,1.59,6.27,6.27,0,0,0-1.54,3,20,20,0,0,0-.45,4.61Zm33.23-28.49a41.4,41.4,0,0,1,9.94,1,15,15,0,0,1,6.45,3.18A12.17,12.17,0,0,1,491,50.91a27.94,27.94,0,0,1,1,8.18V71.84A28,28,0,0,1,491,80a12.17,12.17,0,0,1-3.48,5.58,14.66,14.66,0,0,1-6.45,3.14,43.26,43.26,0,0,1-9.94,1H446.3a43,43,0,0,1-10-1,14.7,14.7,0,0,1-6.42-3.14A12.24,12.24,0,0,1,426.43,80a28,28,0,0,1-1.05-8.18V59.09a27.94,27.94,0,0,1,1.05-8.18,12.24,12.24,0,0,1,3.47-5.58,15.07,15.07,0,0,1,6.42-3.18,41.18,41.18,0,0,1,10-1Z"/><path class="cls-1" d="M508.36,41.13a1.89,1.89,0,0,1,2,1.42l11.34,36.36a.91.91,0,0,0,.88.63H523q.79,0,.87-.63l11.87-33.53a7.24,7.24,0,0,1,2.07-3.32,5.66,5.66,0,0,1,3.55-.93h10.47a5.66,5.66,0,0,1,3.55.93,7.32,7.32,0,0,1,2.07,3.32l11.78,33.53c.06.42.35.63.88.63h.35a.91.91,0,0,0,.88-.63l11.42-36.36c.18-.95.86-1.42,2-1.42h9.93c.76,0,1.24.19,1.45.57a2.14,2.14,0,0,1,0,1.56l-13.35,41c-.71,2.25-1.54,3.72-2.51,4.43A7.25,7.25,0,0,1,576,89.71H565a4.84,4.84,0,0,1-3.52-1.2,11.72,11.72,0,0,1-2.37-4.29l-11.6-32.29a.76.76,0,0,0-.8-.54h-.52c-.47,0-.74.18-.79.54L533.85,84.22a11.72,11.72,0,0,1-2.38,4.29,4.82,4.82,0,0,1-3.51,1.2H516.88a7.19,7.19,0,0,1-4.26-1.06c-1-.71-1.81-2.18-2.51-4.43l-13.18-41a2.29,2.29,0,0,1,0-1.56c.17-.38.67-.57,1.49-.57Z"/><path class="cls-1" d="M264.56,89.71a1.91,1.91,0,0,1-2-1.42L251.2,51.93a.89.89,0,0,0-.87-.63H250c-.52,0-.82.21-.87.63L237.23,85.46a7.4,7.4,0,0,1-2.07,3.32,5.67,5.67,0,0,1-3.56.93H221.14a5.66,5.66,0,0,1-3.55-.93,7.24,7.24,0,0,1-2.07-3.32L203.74,51.93c-.06-.42-.35-.63-.88-.63h-.35a.91.91,0,0,0-.88.63L190.2,88.29c-.17.95-.85,1.42-2,1.42h-9.93c-.76,0-1.24-.19-1.45-.58a2.11,2.11,0,0,1,0-1.55l13.35-41q1-3.36,2.51-4.42a7.23,7.23,0,0,1,4.27-1.06H208a4.82,4.82,0,0,1,3.51,1.2,11.6,11.6,0,0,1,2.38,4.28l11.6,32.3a.74.74,0,0,0,.79.53h.53c.47,0,.74-.17.79-.53l11.51-32.3a11.74,11.74,0,0,1,2.38-4.28,4.82,4.82,0,0,1,3.51-1.2H256a7.21,7.21,0,0,1,4.26,1.06c1,.71,1.8,2.18,2.51,4.42l13.18,41a2.26,2.26,0,0,1,0,1.55c-.17.39-.67.58-1.49.58Z"/><path class="cls-1" d="M612.34,61.22h35.6a1.33,1.33,0,0,0,1.49-1.51V56a5.43,5.43,0,0,0-1.14-3.89c-.76-.76-2.17-1.15-4.22-1.15H622c-3.81,0-6.38.61-7.69,1.82s-2,3.22-2,6.06Zm34.19-20.09a30.81,30.81,0,0,1,7.43.75,9.8,9.8,0,0,1,4.65,2.48A9.65,9.65,0,0,1,661,48.87a28.57,28.57,0,0,1,.7,6.77v8.41c0,1.89-.41,3.19-1.23,3.94a5.51,5.51,0,0,1-3.78,1.1H612.34v2.13q0,4.16,2,6c1.31,1.24,3.88,1.86,7.69,1.86h36.65a1.4,1.4,0,0,1,1.58,1.6v7.43a1.4,1.4,0,0,1-1.58,1.59H620.78a43,43,0,0,1-10-1,14.7,14.7,0,0,1-6.42-3.14A12.16,12.16,0,0,1,600.91,80a28,28,0,0,1-1.06-8.18V59.09a27.91,27.91,0,0,1,1.06-8.18,12.16,12.16,0,0,1,3.47-5.58,15.07,15.07,0,0,1,6.42-3.18,41.18,41.18,0,0,1,10-1Z"/><path class="cls-1" d="M683.44,51.75V69.36a21,21,0,0,0,.44,4.69,6.2,6.2,0,0,0,1.54,3,6.51,6.51,0,0,0,2.94,1.59,19,19,0,0,0,4.67.48h22.15a19.32,19.32,0,0,0,4.74-.48,6.44,6.44,0,0,0,3-1.59,6.29,6.29,0,0,0,1.54-3,21.1,21.1,0,0,0,.43-4.69V61.48a21.17,21.17,0,0,0-.43-4.64,6.16,6.16,0,0,0-1.54-3,6.36,6.36,0,0,0-3-1.6,19.32,19.32,0,0,0-4.74-.48Zm-1.93-28.41a1.71,1.71,0,0,1,1.93,1.95V41.13h33a41.31,41.31,0,0,1,9.93,1,15,15,0,0,1,6.46,3.18,12.16,12.16,0,0,1,3.47,5.58,27.65,27.65,0,0,1,1.05,8.18V71.84A27.65,27.65,0,0,1,736.27,80a12.16,12.16,0,0,1-3.47,5.58,14.65,14.65,0,0,1-6.46,3.14,43.17,43.17,0,0,1-9.93,1H691.79a43,43,0,0,1-10-1,14.65,14.65,0,0,1-6.42-3.14A12.16,12.16,0,0,1,671.93,80a28,28,0,0,1-1.06-8.18V25.29c0-1.3.68-1.95,2-1.95Z"/><path class="cls-1" d="M295.12,41.13c1.28,0,1.93.68,1.93,2V87.76a1.72,1.72,0,0,1-1.93,1.95H286.5a1.71,1.71,0,0,1-1.93-1.95V43.17c0-1.36.64-2,1.93-2Zm0-18a1.71,1.71,0,0,1,1.93,1.94v8.41c0,1.36-.65,2-1.93,2H286.5a1.79,1.79,0,0,1-2-2V25.11c0-1.29.67-1.94,2-1.94Z"/><path class="cls-1" d="M362.36,41.13a1.4,1.4,0,0,1,1.58,1.59v7.44a1.4,1.4,0,0,1-1.58,1.59H328.25a19.32,19.32,0,0,0-4.74.48,6,6,0,0,0-2.9,1.6,6.21,6.21,0,0,0-1.5,3,21.27,21.27,0,0,0-.44,4.65v7.88a21,21,0,0,0,.44,4.69,6.25,6.25,0,0,0,1.5,3,6,6,0,0,0,2.9,1.6,19.32,19.32,0,0,0,4.74.48h34.11a1.41,1.41,0,0,1,1.58,1.6v7.43a1.4,1.4,0,0,1-1.58,1.59H327a42.94,42.94,0,0,1-10-1,14.65,14.65,0,0,1-6.42-3.14A12.16,12.16,0,0,1,307.16,80a28,28,0,0,1-1.06-8.18V59.09a27.91,27.91,0,0,1,1.06-8.18,12.16,12.16,0,0,1,3.47-5.58,15,15,0,0,1,6.42-3.18,41.09,41.09,0,0,1,10-1Z"/><path class="cls-1" d="M417.56,41.13a1.4,1.4,0,0,1,1.58,1.59v7.44a1.4,1.4,0,0,1-1.58,1.59H394.18a19,19,0,0,0-4.67.48,6.43,6.43,0,0,0-2.94,1.6,6,6,0,0,0-1.54,3,21.27,21.27,0,0,0-.44,4.65V87.76a1.71,1.71,0,0,1-1.93,1.95H374a1.76,1.76,0,0,1-2-1.95V59.09a27.91,27.91,0,0,1,1.06-8.18,12.16,12.16,0,0,1,3.47-5.58A15,15,0,0,1,383,42.15a41.09,41.09,0,0,1,10-1Z"/><path class="cls-1" d="M437.94,69.62a20.32,20.32,0,0,0,.45,4.69,6,6,0,0,0,1.54,3,6.23,6.23,0,0,0,2.94,1.59,18.84,18.84,0,0,0,4.66.49h22.41a19.35,19.35,0,0,0,4.75-.49,6.23,6.23,0,0,0,2.94-1.59,6.11,6.11,0,0,0,1.54-3,21,21,0,0,0,.44-4.69v-8.4a20.63,20.63,0,0,0-.44-4.61,6.35,6.35,0,0,0-1.54-3A5.75,5.75,0,0,0,474.69,52a20.65,20.65,0,0,0-4.75-.45H447.53a20.1,20.1,0,0,0-4.66.45,5.75,5.75,0,0,0-2.94,1.59,6.27,6.27,0,0,0-1.54,3,20,20,0,0,0-.45,4.61Zm33.23-28.49a41.4,41.4,0,0,1,9.94,1,15,15,0,0,1,6.45,3.18A12.17,12.17,0,0,1,491,50.91a27.94,27.94,0,0,1,1,8.18V71.84A28,28,0,0,1,491,80a12.17,12.17,0,0,1-3.48,5.58,14.66,14.66,0,0,1-6.45,3.14,43.26,43.26,0,0,1-9.94,1H446.3a43,43,0,0,1-10-1,14.7,14.7,0,0,1-6.42-3.14A12.24,12.24,0,0,1,426.43,80a28,28,0,0,1-1.05-8.18V59.09a27.94,27.94,0,0,1,1.05-8.18,12.24,12.24,0,0,1,3.47-5.58,15.07,15.07,0,0,1,6.42-3.18,41.18,41.18,0,0,1,10-1Z"/><path class="cls-1" d="M508.36,41.13a1.89,1.89,0,0,1,2,1.42l11.34,36.36a.91.91,0,0,0,.88.63H523q.79,0,.87-.63l11.87-33.53a7.24,7.24,0,0,1,2.07-3.32,5.66,5.66,0,0,1,3.55-.93h10.47a5.66,5.66,0,0,1,3.55.93,7.32,7.32,0,0,1,2.07,3.32l11.78,33.53c.06.42.35.63.88.63h.35a.91.91,0,0,0,.88-.63l11.42-36.36c.18-.95.86-1.42,2-1.42h9.93c.76,0,1.24.19,1.45.57a2.14,2.14,0,0,1,0,1.56l-13.35,41c-.71,2.25-1.54,3.72-2.51,4.43A7.25,7.25,0,0,1,576,89.71H565a4.84,4.84,0,0,1-3.52-1.2,11.72,11.72,0,0,1-2.37-4.29l-11.6-32.29a.76.76,0,0,0-.8-.54h-.52c-.47,0-.74.18-.79.54L533.85,84.22a11.72,11.72,0,0,1-2.38,4.29,4.82,4.82,0,0,1-3.51,1.2H516.88a7.19,7.19,0,0,1-4.26-1.06c-1-.71-1.81-2.18-2.51-4.43l-13.18-41a2.29,2.29,0,0,1,0-1.56c.17-.38.67-.57,1.49-.57Z"/><path class="cls-1" d="M264.56,89.71a1.91,1.91,0,0,1-2-1.42L251.2,51.93a.89.89,0,0,0-.87-.63H250c-.52,0-.82.21-.87.63L237.23,85.46a7.4,7.4,0,0,1-2.07,3.32,5.67,5.67,0,0,1-3.56.93H221.14a5.66,5.66,0,0,1-3.55-.93,7.24,7.24,0,0,1-2.07-3.32L203.74,51.93c-.06-.42-.35-.63-.88-.63h-.35a.91.91,0,0,0-.88.63L190.2,88.29c-.17.95-.85,1.42-2,1.42h-9.93c-.76,0-1.24-.19-1.45-.58a2.11,2.11,0,0,1,0-1.55l13.35-41q1-3.36,2.51-4.42a7.23,7.23,0,0,1,4.27-1.06H208a4.82,4.82,0,0,1,3.51,1.2,11.6,11.6,0,0,1,2.38,4.28l11.6,32.3a.74.74,0,0,0,.79.53h.53c.47,0,.74-.17.79-.53l11.51-32.3a11.74,11.74,0,0,1,2.38-4.28,4.82,4.82,0,0,1,3.51-1.2H256a7.21,7.21,0,0,1,4.26,1.06c1,.71,1.8,2.18,2.51,4.42l13.18,41a2.26,2.26,0,0,1,0,1.55c-.17.39-.67.58-1.49.58Z"/><path class="cls-1" d="M612.34,61.22h35.6a1.33,1.33,0,0,0,1.49-1.51V56a5.43,5.43,0,0,0-1.14-3.89c-.76-.76-2.17-1.15-4.22-1.15H622c-3.81,0-6.38.61-7.69,1.82s-2,3.22-2,6.06Zm34.19-20.09a30.81,30.81,0,0,1,7.43.75,9.8,9.8,0,0,1,4.65,2.48A9.65,9.65,0,0,1,661,48.87a28.57,28.57,0,0,1,.7,6.77v8.41c0,1.89-.41,3.19-1.23,3.94a5.51,5.51,0,0,1-3.78,1.1H612.34v2.13q0,4.16,2,6c1.31,1.24,3.88,1.86,7.69,1.86h36.65a1.4,1.4,0,0,1,1.58,1.6v7.43a1.4,1.4,0,0,1-1.58,1.59H620.78a43,43,0,0,1-10-1,14.7,14.7,0,0,1-6.42-3.14A12.16,12.16,0,0,1,600.91,80a28,28,0,0,1-1.06-8.18V59.09a27.91,27.91,0,0,1,1.06-8.18,12.16,12.16,0,0,1,3.47-5.58,15.07,15.07,0,0,1,6.42-3.18,41.18,41.18,0,0,1,10-1Z"/><path class="cls-1" d="M683.44,51.75V69.36a21,21,0,0,0,.44,4.69,6.2,6.2,0,0,0,1.54,3,6.51,6.51,0,0,0,2.94,1.59,19,19,0,0,0,4.67.48h22.15a19.32,19.32,0,0,0,4.74-.48,6.44,6.44,0,0,0,3-1.59,6.29,6.29,0,0,0,1.54-3,21.1,21.1,0,0,0,.43-4.69V61.48a21.17,21.17,0,0,0-.43-4.64,6.16,6.16,0,0,0-1.54-3,6.36,6.36,0,0,0-3-1.6,19.32,19.32,0,0,0-4.74-.48Zm-1.93-28.41a1.71,1.71,0,0,1,1.93,1.95V41.13h33a41.31,41.31,0,0,1,9.93,1,15,15,0,0,1,6.46,3.18,12.16,12.16,0,0,1,3.47,5.58,27.65,27.65,0,0,1,1.05,8.18V71.84A27.65,27.65,0,0,1,736.27,80a12.16,12.16,0,0,1-3.47,5.58,14.65,14.65,0,0,1-6.46,3.14,43.17,43.17,0,0,1-9.93,1H691.79a43,43,0,0,1-10-1,14.65,14.65,0,0,1-6.42-3.14A12.16,12.16,0,0,1,671.93,80a28,28,0,0,1-1.06-8.18V25.29c0-1.3.68-1.95,2-1.95Z"/><path class="cls-1" d="M28.91,47.93l.24.19a.38.38,0,0,0,.58-.17l.1-.29a52.86,52.86,0,0,1,39-34.25A53,53,0,0,1,125.29,37.9a6.18,6.18,0,0,0,5.28,3,4.6,4.6,0,0,0,1.3-.17,6.37,6.37,0,0,0,.66-.21,6.14,6.14,0,0,0,3.72-3.75,6.24,6.24,0,0,0-.55-5.34A65.31,65.31,0,0,0,17.91,44.66l-.12.36a.37.37,0,0,0,.42.48l.38-.07A12.84,12.84,0,0,1,28.91,47.93Z"/><path class="cls-1" d="M141.16,85.39a12.88,12.88,0,0,1-10.36-2.51l-.25-.19a.37.37,0,0,0-.57.17l-.1.29a53.11,53.11,0,0,1-95.51,9.78,6,6,0,0,0-5.61-3,4.8,4.8,0,0,0-.9.12,7.31,7.31,0,0,0-1,.34,6.08,6.08,0,0,0-3.49,3.73,6.17,6.17,0,0,0,.58,5.18,65.49,65.49,0,0,0,55.8,31.51c.75,0,1.5,0,2.25,0a66.57,66.57,0,0,0,11.48-1.41,65,65,0,0,0,48.38-43.24l.13-.36a.37.37,0,0,0-.43-.48Z"/><path class="cls-1" d="M140.14,79.81a7.23,7.23,0,0,1-6.88-2.23l-7-7.8A12.56,12.56,0,0,0,105,74.3l-3.24,10a7.24,7.24,0,0,1-12.26,2.61l-7-7.8a12.56,12.56,0,0,0-21.28,4.52l-3.24,10A7.24,7.24,0,0,1,45.66,96.2l-7-7.8a12.56,12.56,0,0,0-21.28,4.52l-3.12,9.61a7.52,7.52,0,0,1-8,5.3,7.24,7.24,0,0,1-5.83-9.4L14.19,55.84a7.24,7.24,0,0,1,12.26-2.6l7,7.79a12.56,12.56,0,0,0,21.28-4.52l3.24-10a7.24,7.24,0,0,1,12.26-2.6l7,7.79A12.56,12.56,0,0,0,98.55,47.2l3.24-10a7.24,7.24,0,0,1,12.26-2.6l7,7.79a12.56,12.56,0,0,0,21.28-4.52l3.12-9.6a7.5,7.5,0,0,1,8.05-5.3,7.23,7.23,0,0,1,5.83,9.4L145.51,75A7.19,7.19,0,0,1,140.14,79.81Z"/><path class="cls-1" d="M28.91,47.93l.24.19a.38.38,0,0,0,.58-.17l.1-.29a52.86,52.86,0,0,1,39-34.25A53,53,0,0,1,125.29,37.9a6.18,6.18,0,0,0,5.28,3,4.6,4.6,0,0,0,1.3-.17,6.37,6.37,0,0,0,.66-.21,6.14,6.14,0,0,0,3.72-3.75,6.24,6.24,0,0,0-.55-5.34A65.31,65.31,0,0,0,17.91,44.66l-.12.36a.37.37,0,0,0,.42.48l.38-.07A12.84,12.84,0,0,1,28.91,47.93Z"/><path class="cls-1" d="M141.16,85.39a12.88,12.88,0,0,1-10.36-2.51l-.25-.19a.37.37,0,0,0-.57.17l-.1.29a53.11,53.11,0,0,1-95.51,9.78,6,6,0,0,0-5.61-3,4.8,4.8,0,0,0-.9.12,7.31,7.31,0,0,0-1,.34,6.08,6.08,0,0,0-3.49,3.73,6.17,6.17,0,0,0,.58,5.18,65.49,65.49,0,0,0,55.8,31.51c.75,0,1.5,0,2.25,0a66.57,66.57,0,0,0,11.48-1.41,65,65,0,0,0,48.38-43.24l.13-.36a.37.37,0,0,0-.43-.48Z"/><path class="cls-1" d="M140.14,79.81a7.23,7.23,0,0,1-6.88-2.23l-7-7.8A12.56,12.56,0,0,0,105,74.3l-3.24,10a7.24,7.24,0,0,1-12.26,2.61l-7-7.8a12.56,12.56,0,0,0-21.28,4.52l-3.24,10A7.24,7.24,0,0,1,45.66,96.2l-7-7.8a12.56,12.56,0,0,0-21.28,4.52l-3.12,9.61a7.52,7.52,0,0,1-8,5.3,7.24,7.24,0,0,1-5.83-9.4L14.19,55.84a7.24,7.24,0,0,1,12.26-2.6l7,7.79a12.56,12.56,0,0,0,21.28-4.52l3.24-10a7.24,7.24,0,0,1,12.26-2.6l7,7.79A12.56,12.56,0,0,0,98.55,47.2l3.24-10a7.24,7.24,0,0,1,12.26-2.6l7,7.79a12.56,12.56,0,0,0,21.28-4.52l3.12-9.6a7.5,7.5,0,0,1,8.05-5.3,7.23,7.23,0,0,1,5.83,9.4L145.51,75A7.19,7.19,0,0,1,140.14,79.81Z"/><path class="cls-1" d="M28.91,47.93l.24.19a.38.38,0,0,0,.58-.17l.1-.29a52.86,52.86,0,0,1,39-34.25A53,53,0,0,1,125.29,37.9a6.18,6.18,0,0,0,5.28,3,4.6,4.6,0,0,0,1.3-.17,6.37,6.37,0,0,0,.66-.21,6.14,6.14,0,0,0,3.72-3.75,6.24,6.24,0,0,0-.55-5.34A65.31,65.31,0,0,0,17.91,44.66l-.12.36a.37.37,0,0,0,.42.48l.38-.07A12.84,12.84,0,0,1,28.91,47.93Z"/><path class="cls-1" d="M141.16,85.39a12.88,12.88,0,0,1-10.36-2.51l-.25-.19a.37.37,0,0,0-.57.17l-.1.29a53.11,53.11,0,0,1-95.51,9.78,6,6,0,0,0-5.61-3,4.8,4.8,0,0,0-.9.12,7.31,7.31,0,0,0-1,.34,6.08,6.08,0,0,0-3.49,3.73,6.17,6.17,0,0,0,.58,5.18,65.49,65.49,0,0,0,55.8,31.51c.75,0,1.5,0,2.25,0a66.57,66.57,0,0,0,11.48-1.41,65,65,0,0,0,48.38-43.24l.13-.36a.37.37,0,0,0-.43-.48Z"/><path class="cls-1" d="M140.14,79.81a7.23,7.23,0,0,1-6.88-2.23l-7-7.8A12.56,12.56,0,0,0,105,74.3l-3.24,10a7.24,7.24,0,0,1-12.26,2.61l-7-7.8a12.56,12.56,0,0,0-21.28,4.52l-3.24,10A7.24,7.24,0,0,1,45.66,96.2l-7-7.8a12.56,12.56,0,0,0-21.28,4.52l-3.12,9.61a7.52,7.52,0,0,1-8,5.3,7.24,7.24,0,0,1-5.83-9.4L14.19,55.84a7.24,7.24,0,0,1,12.26-2.6l7,7.79a12.56,12.56,0,0,0,21.28-4.52l3.24-10a7.24,7.24,0,0,1,12.26-2.6l7,7.79A12.56,12.56,0,0,0,98.55,47.2l3.24-10a7.24,7.24,0,0,1,12.26-2.6l7,7.79a12.56,12.56,0,0,0,21.28-4.52l3.12-9.6a7.5,7.5,0,0,1,8.05-5.3,7.23,7.23,0,0,1,5.83,9.4L145.51,75A7.19,7.19,0,0,1,140.14,79.81Z"/><path class="cls-1" d="M295.12,41.13c1.28,0,1.93.68,1.93,2V87.76a1.72,1.72,0,0,1-1.93,1.95H286.5a1.71,1.71,0,0,1-1.93-1.95V43.17c0-1.36.64-2,1.93-2Zm0-18a1.71,1.71,0,0,1,1.93,1.94v8.41c0,1.36-.65,2-1.93,2H286.5a1.79,1.79,0,0,1-2-2V25.11c0-1.29.67-1.94,2-1.94Z"/><path class="cls-1" d="M362.36,41.13a1.4,1.4,0,0,1,1.58,1.59v7.44a1.4,1.4,0,0,1-1.58,1.59H328.25a19.32,19.32,0,0,0-4.74.48,6,6,0,0,0-2.9,1.6,6.21,6.21,0,0,0-1.5,3,21.27,21.27,0,0,0-.44,4.65v7.88a21,21,0,0,0,.44,4.69,6.25,6.25,0,0,0,1.5,3,6,6,0,0,0,2.9,1.6,19.32,19.32,0,0,0,4.74.48h34.11a1.41,1.41,0,0,1,1.58,1.6v7.43a1.4,1.4,0,0,1-1.58,1.59H327a42.94,42.94,0,0,1-10-1,14.65,14.65,0,0,1-6.42-3.14A12.16,12.16,0,0,1,307.16,80a28,28,0,0,1-1.06-8.18V59.09a27.91,27.91,0,0,1,1.06-8.18,12.16,12.16,0,0,1,3.47-5.58,15,15,0,0,1,6.42-3.18,41.09,41.09,0,0,1,10-1Z"/><path class="cls-1" d="M417.56,41.13a1.4,1.4,0,0,1,1.58,1.59v7.44a1.4,1.4,0,0,1-1.58,1.59H394.18a19,19,0,0,0-4.67.48,6.43,6.43,0,0,0-2.94,1.6,6,6,0,0,0-1.54,3,21.27,21.27,0,0,0-.44,4.65V87.76a1.71,1.71,0,0,1-1.93,1.95H374a1.76,1.76,0,0,1-2-1.95V59.09a27.91,27.91,0,0,1,1.06-8.18,12.16,12.16,0,0,1,3.47-5.58A15,15,0,0,1,383,42.15a41.09,41.09,0,0,1,10-1Z"/><path class="cls-1" d="M437.94,69.62a20.32,20.32,0,0,0,.45,4.69,6,6,0,0,0,1.54,3,6.23,6.23,0,0,0,2.94,1.59,18.84,18.84,0,0,0,4.66.49h22.41a19.35,19.35,0,0,0,4.75-.49,6.23,6.23,0,0,0,2.94-1.59,6.11,6.11,0,0,0,1.54-3,21,21,0,0,0,.44-4.69v-8.4a20.63,20.63,0,0,0-.44-4.61,6.35,6.35,0,0,0-1.54-3A5.75,5.75,0,0,0,474.69,52a20.65,20.65,0,0,0-4.75-.45H447.53a20.1,20.1,0,0,0-4.66.45,5.75,5.75,0,0,0-2.94,1.59,6.27,6.27,0,0,0-1.54,3,20,20,0,0,0-.45,4.61Zm33.23-28.49a41.4,41.4,0,0,1,9.94,1,15,15,0,0,1,6.45,3.18A12.17,12.17,0,0,1,491,50.91a27.94,27.94,0,0,1,1,8.18V71.84A28,28,0,0,1,491,80a12.17,12.17,0,0,1-3.48,5.58,14.66,14.66,0,0,1-6.45,3.14,43.26,43.26,0,0,1-9.94,1H446.3a43,43,0,0,1-10-1,14.7,14.7,0,0,1-6.42-3.14A12.24,12.24,0,0,1,426.43,80a28,28,0,0,1-1.05-8.18V59.09a27.94,27.94,0,0,1,1.05-8.18,12.24,12.24,0,0,1,3.47-5.58,15.07,15.07,0,0,1,6.42-3.18,41.18,41.18,0,0,1,10-1Z"/><path class="cls-1" d="M508.36,41.13a1.89,1.89,0,0,1,2,1.42l11.34,36.36a.91.91,0,0,0,.88.63H523q.79,0,.87-.63l11.87-33.53a7.24,7.24,0,0,1,2.07-3.32,5.66,5.66,0,0,1,3.55-.93h10.47a5.66,5.66,0,0,1,3.55.93,7.32,7.32,0,0,1,2.07,3.32l11.78,33.53c.06.42.35.63.88.63h.35a.91.91,0,0,0,.88-.63l11.42-36.36c.18-.95.86-1.42,2-1.42h9.93c.76,0,1.24.19,1.45.57a2.14,2.14,0,0,1,0,1.56l-13.35,41c-.71,2.25-1.54,3.72-2.51,4.43A7.25,7.25,0,0,1,576,89.71H565a4.84,4.84,0,0,1-3.52-1.2,11.72,11.72,0,0,1-2.37-4.29l-11.6-32.29a.76.76,0,0,0-.8-.54h-.52c-.47,0-.74.18-.79.54L533.85,84.22a11.72,11.72,0,0,1-2.38,4.29,4.82,4.82,0,0,1-3.51,1.2H516.88a7.19,7.19,0,0,1-4.26-1.06c-1-.71-1.81-2.18-2.51-4.43l-13.18-41a2.29,2.29,0,0,1,0-1.56c.17-.38.67-.57,1.49-.57Z"/><path class="cls-1" d="M264.56,89.71a1.91,1.91,0,0,1-2-1.42L251.2,51.93a.89.89,0,0,0-.87-.63H250c-.52,0-.82.21-.87.63L237.23,85.46a7.4,7.4,0,0,1-2.07,3.32,5.67,5.67,0,0,1-3.56.93H221.14a5.66,5.66,0,0,1-3.55-.93,7.24,7.24,0,0,1-2.07-3.32L203.74,51.93c-.06-.42-.35-.63-.88-.63h-.35a.91.91,0,0,0-.88.63L190.2,88.29c-.17.95-.85,1.42-2,1.42h-9.93c-.76,0-1.24-.19-1.45-.58a2.11,2.11,0,0,1,0-1.55l13.35-41q1-3.36,2.51-4.42a7.23,7.23,0,0,1,4.27-1.06H208a4.82,4.82,0,0,1,3.51,1.2,11.6,11.6,0,0,1,2.38,4.28l11.6,32.3a.74.74,0,0,0,.79.53h.53c.47,0,.74-.17.79-.53l11.51-32.3a11.74,11.74,0,0,1,2.38-4.28,4.82,4.82,0,0,1,3.51-1.2H256a7.21,7.21,0,0,1,4.26,1.06c1,.71,1.8,2.18,2.51,4.42l13.18,41a2.26,2.26,0,0,1,0,1.55c-.17.39-.67.58-1.49.58Z"/><path class="cls-1" d="M612.34,61.22h35.6a1.33,1.33,0,0,0,1.49-1.51V56a5.43,5.43,0,0,0-1.14-3.89c-.76-.76-2.17-1.15-4.22-1.15H622c-3.81,0-6.38.61-7.69,1.82s-2,3.22-2,6.06Zm34.19-20.09a30.81,30.81,0,0,1,7.43.75,9.8,9.8,0,0,1,4.65,2.48A9.65,9.65,0,0,1,661,48.87a28.57,28.57,0,0,1,.7,6.77v8.41c0,1.89-.41,3.19-1.23,3.94a5.51,5.51,0,0,1-3.78,1.1H612.34v2.13q0,4.16,2,6c1.31,1.24,3.88,1.86,7.69,1.86h36.65a1.4,1.4,0,0,1,1.58,1.6v7.43a1.4,1.4,0,0,1-1.58,1.59H620.78a43,43,0,0,1-10-1,14.7,14.7,0,0,1-6.42-3.14A12.16,12.16,0,0,1,600.91,80a28,28,0,0,1-1.06-8.18V59.09a27.91,27.91,0,0,1,1.06-8.18,12.16,12.16,0,0,1,3.47-5.58,15.07,15.07,0,0,1,6.42-3.18,41.18,41.18,0,0,1,10-1Z"/><path class="cls-1" d="M683.44,51.75V69.36a21,21,0,0,0,.44,4.69,6.2,6.2,0,0,0,1.54,3,6.51,6.51,0,0,0,2.94,1.59,19,19,0,0,0,4.67.48h22.15a19.32,19.32,0,0,0,4.74-.48,6.44,6.44,0,0,0,3-1.59,6.29,6.29,0,0,0,1.54-3,21.1,21.1,0,0,0,.43-4.69V61.48a21.17,21.17,0,0,0-.43-4.64,6.16,6.16,0,0,0-1.54-3,6.36,6.36,0,0,0-3-1.6,19.32,19.32,0,0,0-4.74-.48Zm-1.93-28.41a1.71,1.71,0,0,1,1.93,1.95V41.13h33a41.31,41.31,0,0,1,9.93,1,15,15,0,0,1,6.46,3.18,12.16,12.16,0,0,1,3.47,5.58,27.65,27.65,0,0,1,1.05,8.18V71.84A27.65,27.65,0,0,1,736.27,80a12.16,12.16,0,0,1-3.47,5.58,14.65,14.65,0,0,1-6.46,3.14,43.17,43.17,0,0,1-9.93,1H691.79a43,43,0,0,1-10-1,14.65,14.65,0,0,1-6.42-3.14A12.16,12.16,0,0,1,671.93,80a28,28,0,0,1-1.06-8.18V25.29c0-1.3.68-1.95,2-1.95Z"/><path class="cls-1" d="M295.12,41.13c1.28,0,1.93.68,1.93,2V87.76a1.72,1.72,0,0,1-1.93,1.95H286.5a1.71,1.71,0,0,1-1.93-1.95V43.17c0-1.36.64-2,1.93-2Zm0-18a1.71,1.71,0,0,1,1.93,1.94v8.41c0,1.36-.65,2-1.93,2H286.5a1.79,1.79,0,0,1-2-2V25.11c0-1.29.67-1.94,2-1.94Z"/><path class="cls-1" d="M362.36,41.13a1.4,1.4,0,0,1,1.58,1.59v7.44a1.4,1.4,0,0,1-1.58,1.59H328.25a19.32,19.32,0,0,0-4.74.48,6,6,0,0,0-2.9,1.6,6.21,6.21,0,0,0-1.5,3,21.27,21.27,0,0,0-.44,4.65v7.88a21,21,0,0,0,.44,4.69,6.25,6.25,0,0,0,1.5,3,6,6,0,0,0,2.9,1.6,19.32,19.32,0,0,0,4.74.48h34.11a1.41,1.41,0,0,1,1.58,1.6v7.43a1.4,1.4,0,0,1-1.58,1.59H327a42.94,42.94,0,0,1-10-1,14.65,14.65,0,0,1-6.42-3.14A12.16,12.16,0,0,1,307.16,80a28,28,0,0,1-1.06-8.18V59.09a27.91,27.91,0,0,1,1.06-8.18,12.16,12.16,0,0,1,3.47-5.58,15,15,0,0,1,6.42-3.18,41.09,41.09,0,0,1,10-1Z"/><path class="cls-1" d="M417.56,41.13a1.4,1.4,0,0,1,1.58,1.59v7.44a1.4,1.4,0,0,1-1.58,1.59H394.18a19,19,0,0,0-4.67.48,6.43,6.43,0,0,0-2.94,1.6,6,6,0,0,0-1.54,3,21.27,21.27,0,0,0-.44,4.65V87.76a1.71,1.71,0,0,1-1.93,1.95H374a1.76,1.76,0,0,1-2-1.95V59.09a27.91,27.91,0,0,1,1.06-8.18,12.16,12.16,0,0,1,3.47-5.58A15,15,0,0,1,383,42.15a41.09,41.09,0,0,1,10-1Z"/><path class="cls-1" d="M437.94,69.62a20.32,20.32,0,0,0,.45,4.69,6,6,0,0,0,1.54,3,6.23,6.23,0,0,0,2.94,1.59,18.84,18.84,0,0,0,4.66.49h22.41a19.35,19.35,0,0,0,4.75-.49,6.23,6.23,0,0,0,2.94-1.59,6.11,6.11,0,0,0,1.54-3,21,21,0,0,0,.44-4.69v-8.4a20.63,20.63,0,0,0-.44-4.61,6.35,6.35,0,0,0-1.54-3A5.75,5.75,0,0,0,474.69,52a20.65,20.65,0,0,0-4.75-.45H447.53a20.1,20.1,0,0,0-4.66.45,5.75,5.75,0,0,0-2.94,1.59,6.27,6.27,0,0,0-1.54,3,20,20,0,0,0-.45,4.61Zm33.23-28.49a41.4,41.4,0,0,1,9.94,1,15,15,0,0,1,6.45,3.18A12.17,12.17,0,0,1,491,50.91a27.94,27.94,0,0,1,1,8.18V71.84A28,28,0,0,1,491,80a12.17,12.17,0,0,1-3.48,5.58,14.66,14.66,0,0,1-6.45,3.14,43.26,43.26,0,0,1-9.94,1H446.3a43,43,0,0,1-10-1,14.7,14.7,0,0,1-6.42-3.14A12.24,12.24,0,0,1,426.43,80a28,28,0,0,1-1.05-8.18V59.09a27.94,27.94,0,0,1,1.05-8.18,12.24,12.24,0,0,1,3.47-5.58,15.07,15.07,0,0,1,6.42-3.18,41.18,41.18,0,0,1,10-1Z"/><path class="cls-1" d="M508.36,41.13a1.89,1.89,0,0,1,2,1.42l11.34,36.36a.91.91,0,0,0,.88.63H523q.79,0,.87-.63l11.87-33.53a7.24,7.24,0,0,1,2.07-3.32,5.66,5.66,0,0,1,3.55-.93h10.47a5.66,5.66,0,0,1,3.55.93,7.32,7.32,0,0,1,2.07,3.32l11.78,33.53c.06.42.35.63.88.63h.35a.91.91,0,0,0,.88-.63l11.42-36.36c.18-.95.86-1.42,2-1.42h9.93c.76,0,1.24.19,1.45.57a2.14,2.14,0,0,1,0,1.56l-13.35,41c-.71,2.25-1.54,3.72-2.51,4.43A7.25,7.25,0,0,1,576,89.71H565a4.84,4.84,0,0,1-3.52-1.2,11.72,11.72,0,0,1-2.37-4.29l-11.6-32.29a.76.76,0,0,0-.8-.54h-.52c-.47,0-.74.18-.79.54L533.85,84.22a11.72,11.72,0,0,1-2.38,4.29,4.82,4.82,0,0,1-3.51,1.2H516.88a7.19,7.19,0,0,1-4.26-1.06c-1-.71-1.81-2.18-2.51-4.43l-13.18-41a2.29,2.29,0,0,1,0-1.56c.17-.38.67-.57,1.49-.57Z"/><path class="cls-1" d="M264.56,89.71a1.91,1.91,0,0,1-2-1.42L251.2,51.93a.89.89,0,0,0-.87-.63H250c-.52,0-.82.21-.87.63L237.23,85.46a7.4,7.4,0,0,1-2.07,3.32,5.67,5.67,0,0,1-3.56.93H221.14a5.66,5.66,0,0,1-3.55-.93,7.24,7.24,0,0,1-2.07-3.32L203.74,51.93c-.06-.42-.35-.63-.88-.63h-.35a.91.91,0,0,0-.88.63L190.2,88.29c-.17.95-.85,1.42-2,1.42h-9.93c-.76,0-1.24-.19-1.45-.58a2.11,2.11,0,0,1,0-1.55l13.35-41q1-3.36,2.51-4.42a7.23,7.23,0,0,1,4.27-1.06H208a4.82,4.82,0,0,1,3.51,1.2,11.6,11.6,0,0,1,2.38,4.28l11.6,32.3a.74.74,0,0,0,.79.53h.53c.47,0,.74-.17.79-.53l11.51-32.3a11.74,11.74,0,0,1,2.38-4.28,4.82,4.82,0,0,1,3.51-1.2H256a7.21,7.21,0,0,1,4.26,1.06c1,.71,1.8,2.18,2.51,4.42l13.18,41a2.26,2.26,0,0,1,0,1.55c-.17.39-.67.58-1.49.58Z"/><path class="cls-1" d="M612.34,61.22h35.6a1.33,1.33,0,0,0,1.49-1.51V56a5.43,5.43,0,0,0-1.14-3.89c-.76-.76-2.17-1.15-4.22-1.15H622c-3.81,0-6.38.61-7.69,1.82s-2,3.22-2,6.06Zm34.19-20.09a30.81,30.81,0,0,1,7.43.75,9.8,9.8,0,0,1,4.65,2.48A9.65,9.65,0,0,1,661,48.87a28.57,28.57,0,0,1,.7,6.77v8.41c0,1.89-.41,3.19-1.23,3.94a5.51,5.51,0,0,1-3.78,1.1H612.34v2.13q0,4.16,2,6c1.31,1.24,3.88,1.86,7.69,1.86h36.65a1.4,1.4,0,0,1,1.58,1.6v7.43a1.4,1.4,0,0,1-1.58,1.59H620.78a43,43,0,0,1-10-1,14.7,14.7,0,0,1-6.42-3.14A12.16,12.16,0,0,1,600.91,80a28,28,0,0,1-1.06-8.18V59.09a27.91,27.91,0,0,1,1.06-8.18,12.16,12.16,0,0,1,3.47-5.58,15.07,15.07,0,0,1,6.42-3.18,41.18,41.18,0,0,1,10-1Z"/><path class="cls-1" d="M683.44,51.75V69.36a21,21,0,0,0,.44,4.69,6.2,6.2,0,0,0,1.54,3,6.51,6.51,0,0,0,2.94,1.59,19,19,0,0,0,4.67.48h22.15a19.32,19.32,0,0,0,4.74-.48,6.44,6.44,0,0,0,3-1.59,6.29,6.29,0,0,0,1.54-3,21.1,21.1,0,0,0,.43-4.69V61.48a21.17,21.17,0,0,0-.43-4.64,6.16,6.16,0,0,0-1.54-3,6.36,6.36,0,0,0-3-1.6,19.32,19.32,0,0,0-4.74-.48Zm-1.93-28.41a1.71,1.71,0,0,1,1.93,1.95V41.13h33a41.31,41.31,0,0,1,9.93,1,15,15,0,0,1,6.46,3.18,12.16,12.16,0,0,1,3.47,5.58,27.65,27.65,0,0,1,1.05,8.18V71.84A27.65,27.65,0,0,1,736.27,80a12.16,12.16,0,0,1-3.47,5.58,14.65,14.65,0,0,1-6.46,3.14,43.17,43.17,0,0,1-9.93,1H691.79a43,43,0,0,1-10-1,14.65,14.65,0,0,1-6.42-3.14A12.16,12.16,0,0,1,671.93,80a28,28,0,0,1-1.06-8.18V25.29c0-1.3.68-1.95,2-1.95Z"/><path class="cls-1" d="M295.12,41.13c1.28,0,1.93.68,1.93,2V87.76a1.72,1.72,0,0,1-1.93,1.95H286.5a1.71,1.71,0,0,1-1.93-1.95V43.17c0-1.36.64-2,1.93-2Zm0-18a1.71,1.71,0,0,1,1.93,1.94v8.41c0,1.36-.65,2-1.93,2H286.5a1.79,1.79,0,0,1-2-2V25.11c0-1.29.67-1.94,2-1.94Z"/><path class="cls-1" d="M362.36,41.13a1.4,1.4,0,0,1,1.58,1.59v7.44a1.4,1.4,0,0,1-1.58,1.59H328.25a19.32,19.32,0,0,0-4.74.48,6,6,0,0,0-2.9,1.6,6.21,6.21,0,0,0-1.5,3,21.27,21.27,0,0,0-.44,4.65v7.88a21,21,0,0,0,.44,4.69,6.25,6.25,0,0,0,1.5,3,6,6,0,0,0,2.9,1.6,19.32,19.32,0,0,0,4.74.48h34.11a1.41,1.41,0,0,1,1.58,1.6v7.43a1.4,1.4,0,0,1-1.58,1.59H327a42.94,42.94,0,0,1-10-1,14.65,14.65,0,0,1-6.42-3.14A12.16,12.16,0,0,1,307.16,80a28,28,0,0,1-1.06-8.18V59.09a27.91,27.91,0,0,1,1.06-8.18,12.16,12.16,0,0,1,3.47-5.58,15,15,0,0,1,6.42-3.18,41.09,41.09,0,0,1,10-1Z"/><path class="cls-1" d="M417.56,41.13a1.4,1.4,0,0,1,1.58,1.59v7.44a1.4,1.4,0,0,1-1.58,1.59H394.18a19,19,0,0,0-4.67.48,6.43,6.43,0,0,0-2.94,1.6,6,6,0,0,0-1.54,3,21.27,21.27,0,0,0-.44,4.65V87.76a1.71,1.71,0,0,1-1.93,1.95H374a1.76,1.76,0,0,1-2-1.95V59.09a27.91,27.91,0,0,1,1.06-8.18,12.16,12.16,0,0,1,3.47-5.58A15,15,0,0,1,383,42.15a41.09,41.09,0,0,1,10-1Z"/><path class="cls-1" d="M437.94,69.62a20.32,20.32,0,0,0,.45,4.69,6,6,0,0,0,1.54,3,6.23,6.23,0,0,0,2.94,1.59,18.84,18.84,0,0,0,4.66.49h22.41a19.35,19.35,0,0,0,4.75-.49,6.23,6.23,0,0,0,2.94-1.59,6.11,6.11,0,0,0,1.54-3,21,21,0,0,0,.44-4.69v-8.4a20.63,20.63,0,0,0-.44-4.61,6.35,6.35,0,0,0-1.54-3A5.75,5.75,0,0,0,474.69,52a20.65,20.65,0,0,0-4.75-.45H447.53a20.1,20.1,0,0,0-4.66.45,5.75,5.75,0,0,0-2.94,1.59,6.27,6.27,0,0,0-1.54,3,20,20,0,0,0-.45,4.61Zm33.23-28.49a41.4,41.4,0,0,1,9.94,1,15,15,0,0,1,6.45,3.18A12.17,12.17,0,0,1,491,50.91a27.94,27.94,0,0,1,1,8.18V71.84A28,28,0,0,1,491,80a12.17,12.17,0,0,1-3.48,5.58,14.66,14.66,0,0,1-6.45,3.14,43.26,43.26,0,0,1-9.94,1H446.3a43,43,0,0,1-10-1,14.7,14.7,0,0,1-6.42-3.14A12.24,12.24,0,0,1,426.43,80a28,28,0,0,1-1.05-8.18V59.09a27.94,27.94,0,0,1,1.05-8.18,12.24,12.24,0,0,1,3.47-5.58,15.07,15.07,0,0,1,6.42-3.18,41.18,41.18,0,0,1,10-1Z"/><path class="cls-1" d="M508.36,41.13a1.89,1.89,0,0,1,2,1.42l11.34,36.36a.91.91,0,0,0,.88.63H523q.79,0,.87-.63l11.87-33.53a7.24,7.24,0,0,1,2.07-3.32,5.66,5.66,0,0,1,3.55-.93h10.47a5.66,5.66,0,0,1,3.55.93,7.32,7.32,0,0,1,2.07,3.32l11.78,33.53c.06.42.35.63.88.63h.35a.91.91,0,0,0,.88-.63l11.42-36.36c.18-.95.86-1.42,2-1.42h9.93c.76,0,1.24.19,1.45.57a2.14,2.14,0,0,1,0,1.56l-13.35,41c-.71,2.25-1.54,3.72-2.51,4.43A7.25,7.25,0,0,1,576,89.71H565a4.84,4.84,0,0,1-3.52-1.2,11.72,11.72,0,0,1-2.37-4.29l-11.6-32.29a.76.76,0,0,0-.8-.54h-.52c-.47,0-.74.18-.79.54L533.85,84.22a11.72,11.72,0,0,1-2.38,4.29,4.82,4.82,0,0,1-3.51,1.2H516.88a7.19,7.19,0,0,1-4.26-1.06c-1-.71-1.81-2.18-2.51-4.43l-13.18-41a2.29,2.29,0,0,1,0-1.56c.17-.38.67-.57,1.49-.57Z"/><path class="cls-1" d="M264.56,89.71a1.91,1.91,0,0,1-2-1.42L251.2,51.93a.89.89,0,0,0-.87-.63H250c-.52,0-.82.21-.87.63L237.23,85.46a7.4,7.4,0,0,1-2.07,3.32,5.67,5.67,0,0,1-3.56.93H221.14a5.66,5.66,0,0,1-3.55-.93,7.24,7.24,0,0,1-2.07-3.32L203.74,51.93c-.06-.42-.35-.63-.88-.63h-.35a.91.91,0,0,0-.88.63L190.2,88.29c-.17.95-.85,1.42-2,1.42h-9.93c-.76,0-1.24-.19-1.45-.58a2.11,2.11,0,0,1,0-1.55l13.35-41q1-3.36,2.51-4.42a7.23,7.23,0,0,1,4.27-1.06H208a4.82,4.82,0,0,1,3.51,1.2,11.6,11.6,0,0,1,2.38,4.28l11.6,32.3a.74.74,0,0,0,.79.53h.53c.47,0,.74-.17.79-.53l11.51-32.3a11.74,11.74,0,0,1,2.38-4.28,4.82,4.82,0,0,1,3.51-1.2H256a7.21,7.21,0,0,1,4.26,1.06c1,.71,1.8,2.18,2.51,4.42l13.18,41a2.26,2.26,0,0,1,0,1.55c-.17.39-.67.58-1.49.58Z"/><path class="cls-1" d="M612.34,61.22h35.6a1.33,1.33,0,0,0,1.49-1.51V56a5.43,5.43,0,0,0-1.14-3.89c-.76-.76-2.17-1.15-4.22-1.15H622c-3.81,0-6.38.61-7.69,1.82s-2,3.22-2,6.06Zm34.19-20.09a30.81,30.81,0,0,1,7.43.75,9.8,9.8,0,0,1,4.65,2.48A9.65,9.65,0,0,1,661,48.87a28.57,28.57,0,0,1,.7,6.77v8.41c0,1.89-.41,3.19-1.23,3.94a5.51,5.51,0,0,1-3.78,1.1H612.34v2.13q0,4.16,2,6c1.31,1.24,3.88,1.86,7.69,1.86h36.65a1.4,1.4,0,0,1,1.58,1.6v7.43a1.4,1.4,0,0,1-1.58,1.59H620.78a43,43,0,0,1-10-1,14.7,14.7,0,0,1-6.42-3.14A12.16,12.16,0,0,1,600.91,80a28,28,0,0,1-1.06-8.18V59.09a27.91,27.91,0,0,1,1.06-8.18,12.16,12.16,0,0,1,3.47-5.58,15.07,15.07,0,0,1,6.42-3.18,41.18,41.18,0,0,1,10-1Z"/><path class="cls-1" d="M683.44,51.75V69.36a21,21,0,0,0,.44,4.69,6.2,6.2,0,0,0,1.54,3,6.51,6.51,0,0,0,2.94,1.59,19,19,0,0,0,4.67.48h22.15a19.32,19.32,0,0,0,4.74-.48,6.44,6.44,0,0,0,3-1.59,6.29,6.29,0,0,0,1.54-3,21.1,21.1,0,0,0,.43-4.69V61.48a21.17,21.17,0,0,0-.43-4.64,6.16,6.16,0,0,0-1.54-3,6.36,6.36,0,0,0-3-1.6,19.32,19.32,0,0,0-4.74-.48Zm-1.93-28.41a1.71,1.71,0,0,1,1.93,1.95V41.13h33a41.31,41.31,0,0,1,9.93,1,15,15,0,0,1,6.46,3.18,12.16,12.16,0,0,1,3.47,5.58,27.65,27.65,0,0,1,1.05,8.18V71.84A27.65,27.65,0,0,1,736.27,80a12.16,12.16,0,0,1-3.47,5.58,14.65,14.65,0,0,1-6.46,3.14,43.17,43.17,0,0,1-9.93,1H691.79a43,43,0,0,1-10-1,14.65,14.65,0,0,1-6.42-3.14A12.16,12.16,0,0,1,671.93,80a28,28,0,0,1-1.06-8.18V25.29c0-1.3.68-1.95,2-1.95Z"/></g></g></svg>